<?xml version="1.0" standalone="no"?>
<!DOCTYPE svg PUBLIC "-//W3C//DTD SVG 1.1//EN" "http://www.w3.org/Graphics/SVG/1.1/DTD/svg11.dtd" >
<svg xmlns="http://www.w3.org/2000/svg" xmlns:xlink="http://www.w3.org/1999/xlink" version="1.1">
<metadata>
Created by FontForge 20170731 at Fri Aug 22 14:21:13 2014
 By Aleksey,,,
Copyright (c) 2014 Monotype GmbH. All rights reserved.
</metadata>
<defs>
<font id="UniversLTPro-45Light" horiz-adv-x="556" >
  <font-face 
    font-family="Univers LT Pro 45 Light"
    font-weight="300"
    font-stretch="normal"
    units-per-em="1000"
    panose-1="2 11 4 3 2 2 2 2 2 4"
    ascent="724"
    descent="-276"
    x-height="502"
    cap-height="725"
    bbox="-151 -250 1000 1011"
    underline-thickness="50"
    underline-position="-200"
    unicode-range="U+000D-FB04"
  />
<missing-glyph horiz-adv-x="512" 
d="M0 718h512v-718h-512v718zM50 50h412v617h-412v-617zM383 478q0 -27 -9.5 -50t-19.5 -35t-31.5 -32t-30.5 -30q-20 -23 -20 -66v-32h-49v39q0 35 17 65t37.5 47.5t37.5 41.5t17 48q0 36 -22.5 60.5t-53.5 24.5q-71 0 -82 -95l-50 8q6 69 42.5 103t92.5 34q55 0 89.5 -36
t34.5 -95zM217 117v67h61v-67h-61z" />
    <glyph glyph-name="IJ" unicode="IJ" horiz-adv-x="765" 
d="M107 725h65v-725h-65v725zM612 722h65v-493q0 -113 -54 -178q-56 -66 -159 -66q-77 0 -125 50t-61 143h70q5 -59 42.5 -96t94.5 -37q64 0 95.5 53t31.5 123v501z" />
    <glyph glyph-name="ij" unicode="ij" horiz-adv-x="423" 
d="M76 722h70v-75h-70v75zM81 0v502h60v-502h-60zM277 722h70v-75h-70v75zM282 -59v561h60v-533q0 -80 -9 -107q-11 -30 -36 -42t-73 -12h-20v55h5q47 0 60 15.5t13 62.5z" />
    <glyph glyph-name="napostrophe" unicode="&#x22;n" 
d="M74 722h66l-64 -146h-40zM299 517q87 0 132 -53.5t45 -146.5v-317h-60v328q0 60 -35 97t-97 37q-67 0 -105.5 -48t-38.5 -123v-291h-60v396q0 41 -5 106h62l3 -74l2 -2q51 91 157 91z" />
    <glyph glyph-name="f_f" unicode="ff" horiz-adv-x="616" 
d="M525 734q17 0 59 -11v-48q-21 4 -38 4q-45 0 -62.5 -18t-17.5 -64v-95h114v-55h-114v-447h-60v447h-81v55h81v108q0 63 28 93.5t91 30.5zM243 734q20 0 58 -11v-48q-22 4 -37 4q-46 0 -63.5 -18t-17.5 -64v-95h94v-55h-94v-447h-60v447h-101v55h101v108q0 63 28.5 93.5
t91.5 30.5z" />
    <glyph glyph-name="fi" unicode="fi" horiz-adv-x="547" 
d="M243 734q20 0 58 -11v-48q-22 4 -37 4q-61 0 -75 -35q-6 -14 -6 -74v-68h114v-55h-114v-447h-60v447h-101v55h101v108q0 63 28.5 93.5t91.5 30.5zM401 722h70v-75h-70v75zM406 0v502h60v-502h-60z" />
    <glyph glyph-name="fl" unicode="fl" horiz-adv-x="549" 
d="M243 734q20 0 58 -11v-48q-22 4 -37 4q-61 0 -75 -35q-6 -14 -6 -74v-68h114v-55h-114v-447h-60v447h-101v55h101v108q0 63 28.5 93.5t91.5 30.5zM408 0v722h60v-722h-60z" />
    <glyph glyph-name="f_f_i" unicode="ffi" horiz-adv-x="830" 
d="M684 722h70v-75h-70v75zM689 0v502h60v-502h-60zM525 734q17 0 59 -11v-48q-21 4 -38 4q-45 0 -62.5 -18t-17.5 -64v-95h114v-55h-114v-447h-60v447h-81v55h81v108q0 63 28 93.5t91 30.5zM243 734q20 0 58 -11v-48q-22 4 -37 4q-46 0 -63.5 -18t-17.5 -64v-95h94v-55h-94
v-447h-60v447h-101v55h101v108q0 63 28.5 93.5t91.5 30.5z" />
    <glyph glyph-name="f_f_l" unicode="ffl" horiz-adv-x="832" 
d="M691 0v722h60v-722h-60zM525 734q17 0 59 -11v-48q-21 4 -38 4q-45 0 -62.5 -18t-17.5 -64v-95h114v-55h-114v-447h-60v447h-81v55h81v108q0 63 28 93.5t91 30.5zM243 734q20 0 58 -11v-48q-22 4 -37 4q-46 0 -63.5 -18t-17.5 -64v-95h94v-55h-94v-447h-60v447h-101v55
h101v108q0 63 28.5 93.5t91.5 30.5z" />
    <glyph glyph-name=".notdef" horiz-adv-x="512" 
d="M0 718h512v-718h-512v718zM50 50h412v617h-412v-617zM383 478q0 -27 -9.5 -50t-19.5 -35t-31.5 -32t-30.5 -30q-20 -23 -20 -66v-32h-49v39q0 35 17 65t37.5 47.5t37.5 41.5t17 48q0 36 -22.5 60.5t-53.5 24.5q-71 0 -82 -95l-50 8q6 69 42.5 103t92.5 34q55 0 89.5 -36
t34.5 -95zM217 117v67h61v-67h-61z" />
    <glyph glyph-name=".null" horiz-adv-x="0" 
 />
    <glyph glyph-name=".null" horiz-adv-x="0" 
 />
    <glyph glyph-name="nonmarkingreturn" horiz-adv-x="333" 
 />
    <glyph glyph-name="CR" unicode="&#xd;" horiz-adv-x="278" 
 />
    <glyph glyph-name="space" unicode=" " horiz-adv-x="278" 
 />
    <glyph glyph-name="exclam" unicode="!" horiz-adv-x="389" 
d="M154 722h82l-13 -551h-56zM155 86h80v-86h-80v86z" />
    <glyph glyph-name="quotedbl" unicode="&#x22;" horiz-adv-x="278" 
d="M58 496v226h52v-226h-52zM168 496v226h52v-226h-52z" />
    <glyph glyph-name="numbersign" unicode="#" 
d="M175 483l32 209h59l-31 -209h135l30 209h59l-31 -209h99v-60h-107l-20 -137h101v-60h-110l-31 -226h-59l31 226h-136l-34 -226h-58l34 226h-109v60h118l20 137h-111v60h119zM226 423l-22 -137h137l20 137h-135z" />
    <glyph glyph-name="dollar" unicode="$" 
d="M251 707v48h50v-48q80 0 139 -49t63 -126h-70q0 51 -34.5 82t-97.5 35v-275q44 -14 68.5 -23t56.5 -26t48.5 -35.5t28.5 -48t12 -67.5q0 -87 -61 -138t-153 -51v-53h-50v53q-88 2 -148.5 49.5t-60.5 129.5v12h70v-12q0 -50 35 -82t104 -37v275q-79 28 -103 42
q-93 51 -93 153q0 74 59.5 133t136.5 59zM251 389v258q-53 0 -89.5 -38t-36.5 -93q0 -46 30 -76.5t96 -50.5zM301 309v-264q60 4 102 39.5t42 91.5q0 48 -33 78t-111 55z" />
    <glyph glyph-name="percent" unicode="%" horiz-adv-x="1000" 
d="M436 518q0 -77 -42.5 -133t-116.5 -56q-73 0 -116 56t-43 133t42.5 133t116.5 56t116.5 -56t42.5 -133zM263 0l390 707h58l-390 -707h-58zM277 374q52 0 78 42.5t26 101.5t-26 101.5t-79 42.5q-52 0 -77.5 -42.5t-25.5 -101.5t25.5 -101.5t78.5 -42.5zM882 174
q0 -77 -42.5 -133t-116.5 -56q-73 0 -116 56t-43 133t42.5 133t116.5 56t116.5 -56t42.5 -133zM723 30q52 0 78 42.5t26 101.5t-26 101.5t-79 42.5q-52 0 -77.5 -42.5t-25.5 -101.5t25.5 -101.5t78.5 -42.5z" />
    <glyph glyph-name="ampersand" unicode="&#x26;" horiz-adv-x="722" 
d="M297 737q66 0 113.5 -33.5t47.5 -94.5q0 -52 -31.5 -95t-100.5 -95l211 -225q46 104 46 243v24h70q-15 -140 -20 -164q-19 -89 -52 -148l137 -149h-93l-86 96q-93 -111 -222 -111q-107 0 -185 56.5t-78 156.5q0 37 12 67t39.5 59t54 49.5t74.5 52.5q-52 60 -73.5 97.5
t-21.5 82.5q0 61 45.5 96t112.5 35zM209 605q0 -60 78 -144q4 4 24 21.5t28.5 27t22.5 26.5t20 34t6 35q0 32 -24.5 52t-64.5 20q-41 0 -65.5 -19t-24.5 -53zM501 138l-226 243q-151 -102 -151 -170q0 -74 55.5 -120t132.5 -46q58 0 99.5 22t89.5 71z" />
    <glyph glyph-name="quotesingle" unicode="'" horiz-adv-x="278" 
d="M113 496v226h52v-226h-52z" />
    <glyph glyph-name="parenleft" unicode="(" horiz-adv-x="278" 
d="M184 722h50q-88 -225 -88 -409q0 -178 88 -409h-51q-61 155 -84 243t-23 166q0 85 24 171t84 238z" />
    <glyph glyph-name="parenright" unicode=")" horiz-adv-x="278" 
d="M44 722h50q54 -133 81 -228t27 -181q0 -82 -23 -166.5t-84 -242.5h-51q88 231 88 409q0 184 -88 409z" />
    <glyph glyph-name="asterisk" unicode="*" 
d="M158 693l53 29l68 -136l67 136l51 -28l-88 -127l143 12v-58l-142 11l86 -129l-52 -27l-65 138l-68 -140l-50 29l87 128l-144 -10v58l145 -12z" />
    <glyph glyph-name="plus" unicode="+" horiz-adv-x="660" 
d="M300 281v221h60v-221h220v-60h-220v-221h-60v221h-220v60h220z" />
    <glyph glyph-name="comma" unicode="," horiz-adv-x="278" 
d="M102 81h81l-72 -205h-52z" />
    <glyph glyph-name="hyphen" unicode="-" horiz-adv-x="278" 
d="M13 297h252v-60h-252v60z" />
    <glyph glyph-name="period" unicode="." horiz-adv-x="278" 
d="M99 86h80v-86h-80v86z" />
    <glyph glyph-name="slash" unicode="/" horiz-adv-x="278" 
d="M236 722h65l-261 -818h-63z" />
    <glyph glyph-name="zero" unicode="0" 
d="M508 346q0 -361 -230 -361t-230 361t230 361t230 -361zM278 45q160 0 160 301t-161 301q-159 0 -159 -301t160 -301z" />
    <glyph glyph-name="one" unicode="1" 
d="M275 692h62v-692h-65v622q-61 -58 -156 -104v65q84 34 159 109z" />
    <glyph glyph-name="two" unicode="2" 
d="M269 707q89 0 148 -47t59 -132q0 -139 -241 -367l-107 -101h357v-60h-435v68q170 154 263 273t93 183q0 57 -40 90t-99 33q-62 0 -101 -38.5t-39 -99.5h-70q0 89 60 143.5t152 54.5z" />
    <glyph glyph-name="three" unicode="3" 
d="M259 707q98 0 165 -48.5t67 -139.5q0 -60 -39.5 -102.5t-101.5 -54.5v-2q69 -15 110.5 -61.5t41.5 -113.5q0 -91 -71 -145.5t-166 -54.5q-112 0 -170 59.5t-58 138.5h70q0 -61 47 -99.5t110 -38.5q73 0 120.5 39t47.5 109q0 66 -47.5 102.5t-118.5 36.5q-18 0 -36 -3v63
q18 -2 30 -2q66 0 113.5 34t47.5 98q0 58 -45 91.5t-108 33.5q-65 0 -104.5 -32.5t-46.5 -93.5h-70q0 84 63 135t149 51z" />
    <glyph glyph-name="four" unicode="4" 
d="M326 692h86v-477h111v-54h-111v-161h-65v161h-325v63zM347 627h-2l-268 -412h270v412z" />
    <glyph glyph-name="five" unicode="5" 
d="M92 692h381v-60h-319l-11 -247l2 -2q65 73 152 73q95 0 153 -67.5t58 -163.5q0 -102 -61 -171t-161 -69q-112 0 -168 55t-56 130h70q2 -59 43.5 -92t103.5 -33q77 0 118 51t41 132q0 80 -40.5 124t-113.5 44q-50 0 -91 -28.5t-50 -76.5h-67z" />
    <glyph glyph-name="six" unicode="6" 
d="M502 530h-70q-1 52 -39.5 84.5t-93.5 32.5q-92 0 -138 -75.5t-46 -235.5h2q48 113 182 113q99 0 155.5 -63.5t56.5 -165.5t-59.5 -168.5t-159.5 -66.5q-120 0 -183.5 83.5t-63.5 243.5q0 68 6 122.5t23 107t44.5 87.5t73 56.5t105.5 21.5q90 0 147.5 -46.5t57.5 -130.5z
M283 45q74 0 116 47.5t42 123.5q0 77 -37 127.5t-109 50.5q-78 0 -123 -51.5t-45 -131.5q0 -65 44.5 -115.5t111.5 -50.5z" />
    <glyph glyph-name="seven" unicode="7" 
d="M51 692h441v-58l-269 -634h-76l277 632h-373v60z" />
    <glyph glyph-name="eight" unicode="8" 
d="M503 521q0 -60 -39 -103.5t-101 -56.5v-1q150 -39 150 -172q0 -95 -67.5 -149t-168.5 -54q-99 0 -166.5 54t-67.5 150q0 63 39.5 108.5t110.5 61.5v2q-60 6 -100 53t-40 107q0 88 65.5 137t158.5 49q94 0 160 -49t66 -137zM277 391q69 0 115 33t46 97q0 63 -47 97
t-115 34q-66 0 -112 -34.5t-46 -96.5q0 -64 45 -97t114 -33zM277 45q72 0 119 37t47 106t-46.5 106t-120.5 37q-70 0 -116.5 -38t-46.5 -105q0 -68 46 -105.5t118 -37.5z" />
    <glyph glyph-name="nine" unicode="9" 
d="M512 365q0 -194 -65 -287t-197 -93q-61 0 -105 23t-63 56.5t-27 60t-8 45.5h70q3 -125 150 -125q42 0 74 21t50.5 53t30.5 77.5t16 87t4 88.5h-2q-26 -50 -74.5 -78t-108.5 -28q-93 0 -152.5 61t-59.5 154q0 101 61 163.5t161 62.5q245 0 245 -342zM263 321
q72 0 119.5 46t47.5 118q0 71 -46 116.5t-118 45.5q-73 0 -112 -47.5t-39 -123.5q0 -68 40 -111.5t108 -43.5z" />
    <glyph glyph-name="colon" unicode=":" horiz-adv-x="278" 
d="M99 502h80v-86h-80v86zM99 86h80v-86h-80v86z" />
    <glyph glyph-name="semicolon" unicode=";" horiz-adv-x="278" 
d="M107 502h80v-86h-80v86zM121 81h81l-72 -205h-52z" />
    <glyph glyph-name="less" unicode="&#x3c;" horiz-adv-x="660" 
d="M580 501v-64l-421 -186l421 -197v-64l-500 235v53z" />
    <glyph glyph-name="equal" unicode="=" horiz-adv-x="660" 
d="M80 378h500v-60h-500v60zM80 184h500v-60h-500v60z" />
    <glyph glyph-name="greater" unicode="&#x3e;" horiz-adv-x="660" 
d="M80 512l500 -235v-53l-500 -223v64l421 186l-421 197v64z" />
    <glyph glyph-name="question" unicode="?" horiz-adv-x="500" 
d="M213 737q92 0 152 -46.5t60 -132.5q0 -82 -64 -144l-81 -81q-26 -26 -38 -43q-9 -13 -9 -36q0 -15 1 -25v-60h-60v107q0 48 90 125q96 82 96 155q0 59 -42 90t-120 31q-44 0 -94 -15v61q47 14 109 14zM164 86h80v-86h-80v86z" />
    <glyph glyph-name="at" unicode="@" horiz-adv-x="800" 
d="M412 737q141 0 241.5 -88.5t100.5 -224.5q0 -111 -73 -200.5t-158 -89.5q-30 0 -53.5 13.5t-31.5 38.5q-48 -50 -119 -50q-60 0 -98.5 42t-38.5 108q0 67 29.5 134.5t87.5 116t129 48.5q37 0 67 -17.5t44 -47.5l15 46h66l-100 -300q-10 -32 -11 -37q-1 -6 -1 -14
q0 -26 29 -26q62 0 109.5 79.5t47.5 158.5q0 115 -80 187.5t-200 72.5q-136 0 -225 -97t-89 -233q0 -133 91 -227.5t225 -94.5q78 0 149 36t114 99h58q-44 -84 -133.5 -134.5t-187.5 -50.5q-158 0 -267 110.5t-109 268.5q0 150 108 261.5t264 111.5zM257 291q0 -38 20 -66.5
t57 -28.5q62 0 113 91q51 89 51 167q0 29 -19 50t-50 21q-48 0 -88.5 -39t-61.5 -92.5t-22 -102.5z" />
    <glyph glyph-name="A" unicode="A" horiz-adv-x="667" 
d="M295 722h76l288 -722h-71l-77 195h-359l-76 -195h-67zM332 662l-159 -407h315z" />
    <glyph glyph-name="B" unicode="B" horiz-adv-x="667" 
d="M100 722h245q96 0 155.5 -48t59.5 -133q0 -59 -38 -104t-96 -59v-2q78 -13 121 -61t43 -122q0 -90 -58.5 -141.5t-153.5 -51.5h-278v722zM165 404h155q75 0 122.5 31.5t47.5 99.5q0 127 -174 127h-151v-258zM165 60h174q94 0 137.5 34t43.5 108q0 46 -18 75.5t-52.5 43.5
t-69.5 18.5t-84 4.5h-131v-284z" />
    <glyph glyph-name="C" unicode="C" horiz-adv-x="667" 
d="M612 553h-70q-9 62 -55.5 93t-114.5 31q-64 0 -111.5 -26t-75 -71.5t-41 -100t-13.5 -118.5t13 -118.5t40.5 -100t75.5 -71.5t112 -26q66 0 116 34t62 96h70q-14 -86 -85.5 -138t-162.5 -52q-79 0 -139.5 30t-97.5 82.5t-55.5 119t-18.5 144.5q0 105 32 188t104 135.5
t175 52.5q98 0 165.5 -47t74.5 -137z" />
    <glyph glyph-name="D" unicode="D" horiz-adv-x="722" 
d="M91 722h201q175 0 270.5 -93t95.5 -268q0 -179 -97 -270t-269 -91h-201v722zM272 662h-116v-602h151q138 0 209.5 77.5t71.5 223.5q0 301 -316 301z" />
    <glyph glyph-name="E" unicode="E" horiz-adv-x="611" 
d="M102 722h429v-60h-364v-259h350v-60h-350v-283h379v-60h-444v722z" />
    <glyph glyph-name="F" unicode="F" 
d="M95 722h408v-60h-343v-255h331v-60h-331v-347h-65v722z" />
    <glyph glyph-name="G" unicode="G" horiz-adv-x="722" 
d="M372 737q98 0 173 -52t81 -141h-74q-9 65 -59.5 99t-120.5 34q-81 0 -136.5 -48t-78.5 -117.5t-23 -151.5q0 -147 66.5 -231t204.5 -84q59 0 161 30v233h-181v60h246v-338q-121 -45 -257 -45q-102 0 -174 52.5t-104 135t-32 187.5q0 73 19.5 140t57 120.5t97.5 85
t134 31.5z" />
    <glyph glyph-name="H" unicode="H" horiz-adv-x="722" 
d="M99 722h65v-317h394v317h65v-722h-65v345h-394v-345h-65v722z" />
    <glyph glyph-name="I" unicode="I" horiz-adv-x="278" 
d="M107 725h65v-725h-65v725z" />
    <glyph glyph-name="J" unicode="J" horiz-adv-x="500" 
d="M347 722h65v-493q0 -113 -54 -178q-56 -66 -159 -66q-77 0 -125 50t-61 143h70q5 -59 42.5 -96t94.5 -37q64 0 95.5 53t31.5 123v501z" />
    <glyph glyph-name="K" unicode="K" horiz-adv-x="611" 
d="M106 722h64l1 -318l323 318h82l-333 -326l363 -396h-89l-346 377l-1 -377h-64v722z" />
    <glyph glyph-name="L" unicode="L" 
d="M100 722h65v-662h363v-60h-428v722z" />
    <glyph glyph-name="M" unicode="M" horiz-adv-x="944" 
d="M97 722h104l271 -629l277 629h99v-722h-65v667h-2l-276 -667h-65l-276 664h-2v-664h-65v722z" />
    <glyph glyph-name="N" unicode="N" horiz-adv-x="722" 
d="M92 722h74l398 -635h2v635h65v-722h-82l-390 624h-2v-624h-65v722z" />
    <glyph glyph-name="O" unicode="O" horiz-adv-x="778" 
d="M389 737q157 0 239.5 -105t82.5 -271q0 -167 -82.5 -271.5t-239.5 -104.5t-239.5 105t-82.5 271q0 108 34 191.5t108 134t180 50.5zM137 361q0 -86 25.5 -155.5t84 -115t142.5 -45.5t142.5 45.5t84 115t25.5 155.5t-25.5 155.5t-84 115t-143.5 45.5q-83 0 -141.5 -45.5
t-84 -115t-25.5 -155.5z" />
    <glyph glyph-name="P" unicode="P" horiz-adv-x="611" 
d="M100 722h200q136 0 206 -52t70 -152q0 -101 -71 -152.5t-207 -51.5h-133v-314h-65v722zM165 374h163q86 0 132 36.5t46 107.5q0 144 -184 144h-157v-288z" />
    <glyph glyph-name="Q" unicode="Q" horiz-adv-x="778" 
d="M389 737q157 0 239.5 -105t82.5 -271q0 -92 -33 -174.5t-99 -131.5l2 -2q23 4 76 6l81 1v-60h-150q-11 0 -35.5 2t-39.5 2q-27 0 -49 -5q-47 -14 -76 -14q-156 0 -238.5 105t-82.5 271q0 108 34 191.5t108 134t180 50.5zM137 361q0 -86 25.5 -155.5t84 -115t142.5 -45.5
t142.5 45.5t84 115t25.5 155.5t-25.5 155.5t-84 115t-143.5 45.5q-122 0 -186.5 -90.5t-64.5 -225.5z" />
    <glyph glyph-name="R" unicode="R" horiz-adv-x="667" 
d="M103 722h251q103 0 166 -45t63 -143q0 -57 -36.5 -98.5t-102.5 -57.5v-2q55 -9 83 -43q30 -36 37 -108q2 -16 10 -109q7 -86 29 -116h-75q-17 44 -24 133q-1 27 -9 92q-8 67 -35 93q-26 26 -106 26h-186v-344h-65v722zM168 404h152q92 0 142.5 28t50.5 101
q0 129 -157 129h-188v-258z" />
    <glyph glyph-name="S" unicode="S" horiz-adv-x="611" 
d="M306 737q95 0 160 -42.5t74 -129.5h-70q-1 54 -41.5 83t-115.5 29q-65 0 -116.5 -33t-51.5 -93q0 -54 37 -88q38 -35 124 -62l67 -22q84 -28 132 -70t48 -119q0 -115 -98 -168q-33 -18 -83.5 -27.5t-82.5 -9.5q-61 0 -100 16q-60 24 -95.5 76t-35.5 111h70
q0 -143 181 -143q68 0 121 37.5t53 101.5q0 67 -63 104q-13 8 -30 14.5t-47.5 16t-46.5 15.5q-42 12 -85 32q-67 30 -101.5 72t-34.5 104q0 89 69 142t162 53z" />
    <glyph glyph-name="T" unicode="T" 
d="M14 722h528v-60h-229l-1 -662h-64l-1 662h-233v60z" />
    <glyph glyph-name="U" unicode="U" horiz-adv-x="722" 
d="M97 722h65v-459q0 -96 52.5 -157t146.5 -61q95 0 147 61t52 160v456h65v-460q0 -128 -69 -202.5t-195 -74.5t-195 74t-69 201v462z" />
    <glyph glyph-name="V" unicode="V" horiz-adv-x="611" 
d="M6 722h71l232 -657h2l229 657h65l-261 -722h-74z" />
    <glyph glyph-name="W" unicode="W" horiz-adv-x="1000" 
d="M10 722h69l168 -657h2l211 657h79l220 -657h2l167 657h63l-190 -722h-89l-213 655h-2l-207 -655h-92z" />
    <glyph glyph-name="X" unicode="X" horiz-adv-x="611" 
d="M21 722h85l204 -304l212 304h73l-250 -350l258 -372h-83l-219 323l-219 -323h-74l257 372z" />
    <glyph glyph-name="Y" unicode="Y" horiz-adv-x="611" 
d="M8 722h83l221 -349l221 349h70l-264 -408v-314h-65v312z" />
    <glyph glyph-name="Z" unicode="Z" 
d="M39 722h478v-60l-402 -602h402v-60h-478v60l401 602h-401v60z" />
    <glyph glyph-name="bracketleft" unicode="[" horiz-adv-x="278" 
d="M85 722h137v-50h-72v-718h72v-50h-137v818z" />
    <glyph glyph-name="backslash" unicode="\" horiz-adv-x="278" 
d="M-44 722h65l302 -722h-65z" />
    <glyph glyph-name="bracketright" unicode="]" horiz-adv-x="278" 
d="M56 722h137v-818h-137v50h72v718h-72v50z" />
    <glyph glyph-name="asciicircum" unicode="^" horiz-adv-x="660" 
d="M74 239l230 453h52l231 -453h-57l-201 392l-197 -392h-58z" />
    <glyph glyph-name="underscore" unicode="_" horiz-adv-x="500" 
d="M0 -68h500v-56h-500v56z" />
    <glyph glyph-name="grave" unicode="`" horiz-adv-x="278" 
d="M20 707h80l91 -143h-44z" />
    <glyph glyph-name="a" unicode="a" horiz-adv-x="500" 
d="M246 517q88 0 133 -42t45 -119v-273q0 -18 5 -83h-62l-2 74h-2q-13 -35 -61.5 -62t-98.5 -27q-74 0 -120.5 42.5t-46.5 112.5q0 65 45 108.5t112 52.5q31 4 117 6l54 1v33q0 62 -28 91.5t-91 29.5q-114 0 -123 -87h-64q10 70 58.5 106t129.5 36zM101 140q0 -47 31 -73.5
t82 -26.5q145 0 151 172q0 6 -0.5 19.5t-0.5 21.5l-60 -1q-108 -1 -155.5 -28t-47.5 -84z" />
    <glyph glyph-name="b" unicode="b" 
d="M70 106v616h60v-294l2 -2q25 42 72 66.5t101 24.5q95 0 150 -72.5t55 -191.5q0 -117 -54.5 -192.5t-148.5 -75.5q-111 0 -175 93l-2 -4l-3 -74h-62q5 87 5 106zM130 261q0 -106 44 -163.5t126 -57.5q70 0 107.5 59.5t37.5 158.5q0 91 -41.5 147.5t-112.5 56.5
q-74 0 -117.5 -54t-43.5 -147z" />
    <glyph glyph-name="c" unicode="c" horiz-adv-x="500" 
d="M270 517q80 0 134 -45.5t58 -123.5h-65q-7 114 -137 114q-65 0 -107 -59.5t-42 -150.5q0 -90 42 -151t107 -61q56 0 94.5 31.5t42.5 85.5h65q-24 -172 -196 -172q-101 0 -160.5 74t-59.5 192q0 115 61.5 190.5t162.5 75.5z" />
    <glyph glyph-name="d" unicode="d" 
d="M426 428v294h60v-616q0 -16 4 -85q0 -3 0.5 -9.5t0.5 -11.5h-62l-3 74l-2 4q-64 -93 -172 -93q-97 0 -151.5 75.5t-54.5 192.5q0 120 55 192t151 72q53 0 99.5 -24t72.5 -67zM111 259q0 -99 36.5 -159t105.5 -60q83 0 127 58t44 165q0 90 -42.5 144.5t-120.5 54.5
q-71 0 -110.5 -55t-39.5 -148z" />
    <glyph glyph-name="e" unicode="e" 
d="M274 517q111 0 169.5 -71t59.5 -209h-388q2 -95 47.5 -146t126.5 -51q52 0 92.5 33.5t52.5 86.5h63q-45 -175 -226 -175q-103 0 -162 74.5t-59 191.5q0 116 61.5 191t162.5 75zM117 292h321q-6 80 -49 125t-115 45q-64 0 -106 -45t-51 -125z" />
    <glyph glyph-name="f" unicode="f" horiz-adv-x="333" 
d="M243 734q20 0 58 -11v-48q-22 4 -37 4q-61 0 -75 -35q-6 -14 -6 -74v-68h114v-55h-114v-447h-60v447h-101v55h101v108q0 63 28.5 93.5t91.5 30.5z" />
    <glyph glyph-name="g" unicode="g" 
d="M259 517q99 0 165 -93l2 4l3 74h62q-5 -92 -5 -106v-359q0 -73 -19.5 -119t-63.5 -74q-57 -36 -136 -36q-93 0 -146.5 35.5t-53.5 99.5h65q4 -39 43 -59.5t98 -20.5q64 0 108.5 41t44.5 101v91h-2q-21 -43 -66.5 -68.5t-96.5 -25.5q-102 0 -159 67.5t-57 185.5
q0 119 56 190.5t158 71.5zM110 260q0 -85 42.5 -144t114.5 -59q74 0 116.5 57.5t42.5 147.5q0 83 -44.5 141.5t-117.5 58.5q-68 0 -111 -57.5t-43 -144.5z" />
    <glyph glyph-name="h" unicode="h" 
d="M80 0v722h60v-296h2q51 91 157 91q86 0 131.5 -53t45.5 -147v-317h-60v325q0 65 -35 101t-97 36q-67 0 -105.5 -48.5t-38.5 -123.5v-290h-60z" />
    <glyph glyph-name="i" unicode="i" horiz-adv-x="222" 
d="M76 722h70v-75h-70v75zM81 0v502h60v-502h-60z" />
    <glyph glyph-name="j" unicode="j" horiz-adv-x="222" 
d="M76 722h70v-75h-70v75zM81 -59v561h60v-533q0 -80 -9 -107q-11 -30 -36 -42t-73 -12h-20v55h5q47 0 60 15.5t13 62.5z" />
    <glyph glyph-name="k" unicode="k" horiz-adv-x="500" 
d="M86 0v722h60v-425l243 205h77l-254 -217l274 -285h-76l-264 272v-272h-60z" />
    <glyph glyph-name="l" unicode="l" horiz-adv-x="222" 
d="M81 0v722h60v-722h-60z" />
    <glyph glyph-name="m" unicode="m" horiz-adv-x="889" 
d="M298 517q58 0 102 -30t61 -80q70 110 173 110q87 0 132 -53.5t45 -146.5v-317h-60v328q0 60 -35 97t-97 37q-67 0 -105.5 -48t-38.5 -122v-292h-60v328q0 60 -35 97t-97 37q-67 0 -105.5 -48.5t-38.5 -121.5v-292h-60v396q0 36 -5 106h62l3 -74l2 -2q53 91 157 91z" />
    <glyph glyph-name="n" unicode="n" 
d="M299 517q87 0 132 -53.5t45 -146.5v-317h-60v328q0 60 -35 97t-97 37q-67 0 -105.5 -48t-38.5 -123v-291h-60v396q0 41 -5 106h62l3 -74l2 -2q51 91 157 91z" />
    <glyph glyph-name="o" unicode="o" 
d="M278 517q108 0 171 -76t63 -190t-63 -190t-171 -76t-171 75.5t-63 190.5q0 114 63 190t171 76zM109 251q0 -88 45.5 -149.5t123.5 -61.5q77 0 123 61t46 150q0 87 -45 149t-125 62q-77 0 -122.5 -61.5t-45.5 -149.5z" />
    <glyph glyph-name="p" unicode="p" 
d="M305 517q96 0 150.5 -72.5t54.5 -191.5q0 -114 -53.5 -191t-149.5 -77q-111 0 -175 93h-2v-270h-60v599q0 21 -2 47.5t-3 47.5h62l3 -74l2 -2q25 42 72 66.5t101 24.5zM130 263q0 -107 44 -165t126 -58q72 0 108.5 61t36.5 159q0 91 -40 146.5t-114 55.5
q-76 0 -118.5 -53.5t-42.5 -145.5z" />
    <glyph glyph-name="q" unicode="q" 
d="M252 517q52 0 100.5 -24.5t71.5 -64.5v-3h2l3 77h62q-5 -92 -5 -106v-587h-60v269h-2q-64 -93 -175 -93q-94 0 -148.5 76.5t-54.5 191.5q0 120 55 192t151 72zM111 260q0 -101 37.5 -160.5t106.5 -59.5q83 0 127 58t44 165q0 91 -42.5 145t-120.5 54q-71 0 -111.5 -55
t-40.5 -147z" />
    <glyph glyph-name="r" unicode="r" horiz-adv-x="333" 
d="M274 518q5 0 41 -2v-58q-2 0 -16 2t-22 2q-65 0 -101 -45t-36 -117v-300h-60v407q0 12 -5 95h62l3 -74h2q24 66 87 85q16 5 45 5z" />
    <glyph glyph-name="s" unicode="s" horiz-adv-x="500" 
d="M247 517q86 0 132 -36t51 -103h-65q-8 84 -123 84q-52 0 -83 -21.5t-31 -59.5q0 -29 19 -44q23 -19 96 -37q8 -2 29.5 -7.5t29 -7.5t24 -6.5t24 -7.5t18.5 -8t19 -9.5t15 -10.5q44 -35 44 -94q0 -76 -59 -120t-152 -44q-84 0 -136.5 42t-52.5 110h65q3 -47 39 -72
t100 -25q57 0 94 27t37 73q0 68 -111 91q-44 9 -70 16t-55.5 18.5t-45 25.5t-26 36t-10.5 50q0 66 50.5 103t133.5 37z" />
    <glyph glyph-name="t" unicode="t" horiz-adv-x="333" 
d="M183 635v-133h114v-55h-114v-341q0 -66 70 -66q30 0 51 6v-52q-34 -9 -61 -9q-63 0 -91.5 27t-28.5 91v344h-100v55h100v107z" />
    <glyph glyph-name="u" unicode="u" 
d="M80 185v317h60v-327q0 -61 34.5 -98t97.5 -37q69 0 106.5 49t37.5 120v293h60v-396q0 -19 1 -31l4 -75h-62l-3 74l-2 2q-51 -91 -157 -91q-87 0 -132 53.5t-45 146.5z" />
    <glyph glyph-name="v" unicode="v" horiz-adv-x="500" 
d="M14 502h66l173 -419l167 419h66l-199 -502h-68z" />
    <glyph glyph-name="w" unicode="w" horiz-adv-x="833" 
d="M16 502h66l150 -423h2l152 423h71l148 -419h2l145 419h66l-187 -502h-57l-154 433h-2l-157 -433h-61z" />
    <glyph glyph-name="x" unicode="x" horiz-adv-x="500" 
d="M26 502h80l147 -202l151 202h63l-180 -243l196 -259h-79l-161 218l-158 -218h-67l193 257z" />
    <glyph glyph-name="y" unicode="y" horiz-adv-x="500" 
d="M8 502h73l169 -420l168 420h65l-277 -694h-66l76 192z" />
    <glyph glyph-name="z" unicode="z" horiz-adv-x="444" 
d="M40 502h364v-55l-291 -392h291v-55h-364v55l293 392h-293v55z" />
    <glyph glyph-name="braceleft" unicode="{" horiz-adv-x="278" 
d="M202 722h46v-50h-29q-20 0 -32 -19t-12 -52v-150q0 -89 -65 -139q30 -21 47.5 -57.5t17.5 -75.5v-152q0 -36 12.5 -54.5t32.5 -18.5h28v-50h-44q-36 0 -65 30.5t-29 82.5v147q0 63 -17 89t-55 31v55q38 5 55 32t17 93v146q0 50 28.5 81t63.5 31z" />
    <glyph glyph-name="bar" unicode="|" horiz-adv-x="222" 
d="M81 -250v1000h60v-1000h-60z" />
    <glyph glyph-name="braceright" unicode="}" horiz-adv-x="278" 
d="M30 672v50h44q37 0 65.5 -32t28.5 -76v-152q0 -58 15.5 -87t56.5 -34v-55q-39 -5 -55.5 -33t-16.5 -90v-147q0 -50 -29 -81t-65 -31h-44v50h29q19 0 31.5 19t12.5 55v152q0 83 65 134q-30 21 -47.5 58t-17.5 75v151q0 37 -12.5 55.5t-32.5 18.5h-28z" />
    <glyph glyph-name="asciitilde" unicode="~" horiz-adv-x="660" 
d="M540 334l40 -34q-57 -109 -140 -109q-10 0 -20 1.5t-23.5 6t-21.5 7.5t-26 10t-24 9q-15 6 -38 17t-38 16.5t-28 5.5q-29 0 -54 -22t-54 -73l-33 47q66 103 141 103q37 0 117 -36q83 -36 103 -36q53 0 99 87z" />
    <glyph glyph-name="uni00A0" unicode="&#xa0;" horiz-adv-x="278" 
 />
    <glyph glyph-name="exclamdown" unicode="&#xa1;" horiz-adv-x="389" 
d="M155 542h80v-86h-80v86zM154 -180l13 551h56l13 -551h-82z" />
    <glyph glyph-name="cent" unicode="&#xa2;" 
d="M328 514l35 125h44l-38 -134q111 -41 117 -157h-65q-6 79 -67 102l-112 -402q19 -8 43 -8q56 0 94 31.5t42 85.5h65q-24 -172 -195 -172q-34 0 -64 9l-36 -127h-45l41 144q-55 31 -86 95t-31 145q0 116 61.5 191t162.5 75q19 0 34 -3zM204 71l109 389q-24 2 -29 2
q-66 0 -107.5 -59.5t-41.5 -150.5q0 -123 69 -181z" />
    <glyph glyph-name="sterling" unicode="&#xa3;" 
d="M527 564h-70q-2 37 -36 60t-89 23q-70 0 -108.5 -44.5t-38.5 -135.5v-35h162v-60h-162v-312h320v-60h-445v60h60v312h-74v60h74v34q0 123 54 182t165 59q81 0 134 -38.5t54 -104.5z" />
    <glyph glyph-name="currency" unicode="&#xa4;" 
d="M428 504l44 43l52 -53l-43 -43q48 -68 48 -156q0 -72 -48 -143l43 -42l-52 -53l-44 43q-68 -50 -155 -50q-76 0 -145 50l-44 -43l-52 53l43 42q-48 71 -48 148q0 84 48 151l-43 43l52 53l44 -43q64 49 154 49q76 0 146 -49zM97 301q0 -76 54 -128.5t125 -52.5
q76 0 129.5 54t53.5 129q0 71 -51 125.5t-127 54.5q-79 0 -131.5 -52t-52.5 -130z" />
    <glyph glyph-name="yen" unicode="&#xa5;" 
d="M1 692h83l201 -319l200 319h70l-242 -376h199v-60h-200v-60h200v-60h-200v-136h-65v136h-203v60h203v60h-203v60h201z" />
    <glyph glyph-name="brokenbar" unicode="&#xa6;" horiz-adv-x="222" 
d="M81 325v350h60v-350h-60zM81 -175v350h60v-350h-60z" />
    <glyph glyph-name="section" unicode="&#xa7;" 
d="M405 718v-55q-47 19 -99 19q-54 0 -85.5 -20.5t-31.5 -57.5q0 -49 87 -84l10 -4q41 -16 61 -25.5t45.5 -25.5t35.5 -34.5t10 -42.5q0 -35 -27.5 -67t-77.5 -55q111 -42 111 -127q0 -70 -53 -112t-140 -42q-68 0 -128 22v57q57 -24 124 -24q58 0 95 25.5t37 72.5
q0 28 -23.5 46.5t-75.5 34.5q-87 27 -128 56t-41 84q0 36 28.5 67.5t78.5 53.5q-52 28 -73 56t-21 65q0 65 48 100.5t128 35.5q38 0 105 -19zM277 282l11 6q28 14 41 21.5t28.5 26t15.5 40.5q0 24 -22 41t-54 28.5t-37 15.5l-6 -4q-21 -12 -30.5 -18.5t-23 -18t-19 -24.5
t-5.5 -30q0 -25 22 -44t79 -40z" />
    <glyph glyph-name="dieresis" unicode="&#xa8;" horiz-adv-x="278" 
d="M15 707h74v-88h-74v88zM189 707h74v-88h-74v88z" />
    <glyph glyph-name="copyright" unicode="&#xa9;" horiz-adv-x="800" 
d="M400 741q157 0 267.5 -111t110.5 -267q0 -157 -110.5 -268.5t-267.5 -111.5q-153 0 -265.5 111t-112.5 269q0 156 111.5 267t266.5 111zM62 363q0 -143 99.5 -241.5t238.5 -98.5q141 0 239 99.5t98 240.5q0 138 -98.5 237.5t-239.5 99.5q-138 0 -237.5 -99.5
t-99.5 -237.5zM404 590q61 0 101 -30t44 -81h-43q-4 35 -31.5 55t-70.5 20q-69 0 -106.5 -50.5t-37.5 -138.5q0 -89 37.5 -139t106.5 -50q41 0 70.5 20.5t36.5 56.5h42q-9 -51 -51 -82t-99 -31q-87 0 -136 62t-49 163q0 102 49.5 163.5t136.5 61.5z" />
    <glyph glyph-name="ordfeminine" unicode="&#xaa;" horiz-adv-x="300" 
d="M276 645v-175q0 -17 4 -43h-46l-3 40h-2q-13 -22 -40.5 -35.5t-56.5 -13.5q-48 0 -78.5 26t-30.5 67q0 43 37 71q26 19 59.5 24t112.5 6v20q0 42 -23 56q-16 9 -48 9q-38 0 -56 -10t-21 -35h-46q12 85 122 85q58 0 87 -25.5t29 -66.5zM234 557v15h-15q-32 0 -51.5 -1.5
t-44.5 -6.5t-37.5 -18.5t-12.5 -34.5q0 -53 66 -53q47 0 71 27.5t24 71.5z" />
    <glyph glyph-name="guillemotleft" unicode="&#xab;" 
d="M208 462h51l-93 -195l92 -195h-50l-106 195zM388 462h51l-93 -195l92 -195h-50l-106 195z" />
    <glyph glyph-name="logicalnot" unicode="&#xac;" horiz-adv-x="660" 
d="M80 378h500v-266h-60v206h-440v60z" />
    <glyph glyph-name="uni00AD" unicode="&#xad;" horiz-adv-x="278" 
d="M13 297h252v-60h-252v60z" />
    <glyph glyph-name="registered" unicode="&#xae;" horiz-adv-x="400" 
d="M200 741q79 0 134 -56t55 -133q0 -78 -55 -134t-134 -56q-78 0 -133.5 56t-55.5 134q0 77 55.5 133t133.5 56zM31 552q0 -71 49.5 -120.5t119.5 -49.5q71 0 119.5 50t48.5 120q0 69 -49 119t-120 50q-69 0 -118.5 -50t-49.5 -119zM129 661h75q69 0 69 -56q0 -35 -42 -47
q15 -2 23.5 -12t10.5 -20t3 -28q4 -43 11 -53h-23q-6 13 -7 46q-1 37 -10 47t-32 10h-58v-103h-20v216zM149 643v-77h43q31 0 45.5 9t14.5 30q0 38 -45 38h-58z" />
    <glyph glyph-name="macron" unicode="&#xaf;" horiz-adv-x="278" 
d="M17 707h245v-60h-245v60z" />
    <glyph glyph-name="degree" unicode="&#xb0;" horiz-adv-x="400" 
d="M350 557q0 -60 -43.5 -105t-106.5 -45q-61 0 -105.5 43.5t-44.5 108.5q0 61 44 104.5t106 43.5t106 -44.5t44 -105.5zM200 452q45 0 75 30t30 75t-30 75t-77 30q-43 0 -73 -29.5t-30 -73.5q0 -47 29.5 -77t75.5 -30z" />
    <glyph glyph-name="plusminus" unicode="&#xb1;" horiz-adv-x="660" 
d="M300 330v172h60v-172h220v-60h-220v-170h-60v170h-220v60h220zM80 60h500v-60h-500v60z" />
    <glyph glyph-name="twosuperior" unicode="&#xb2;" horiz-adv-x="360" 
d="M176 708q58 0 96 -31t38 -82q0 -46 -38 -99t-97.5 -108t-60.5 -56h202v-48h-282v41q222 185 222 267q0 28 -22.5 48t-58.5 20q-38 0 -63.5 -20.5t-25.5 -50.5h-48q0 54 39 86.5t99 32.5z" />
    <glyph glyph-name="threesuperior" unicode="&#xb3;" horiz-adv-x="360" 
d="M168 708q69 0 110 -30t41 -82q0 -34 -24 -59t-68 -35v-2q45 -9 72 -39t27 -70q0 -53 -45 -85.5t-109 -32.5q-66 0 -107 32t-41 85h54q1 -31 28 -50t65 -19q46 0 73.5 20t27.5 55q0 37 -28 60t-72 23q-1 0 -23 -2v48q9 -1 19 -1q46 0 71.5 20t25.5 54q0 27 -25.5 44.5
t-65.5 17.5q-80 0 -90 -62h-54q0 48 39.5 79t98.5 31z" />
    <glyph glyph-name="acute" unicode="&#xb4;" horiz-adv-x="278" 
d="M178 707h80l-127 -143h-44z" />
    <glyph glyph-name="mu" unicode="&#xb5;" 
d="M80 -192v694h60v-327q0 -62 34.5 -98.5t97.5 -36.5q67 0 105.5 48.5t38.5 124.5v289h60v-396q0 -19 1 -31l4 -75h-62l-3 74l-2 2q-51 -91 -157 -91q-50 0 -117 25v-202h-60z" />
    <glyph glyph-name="paragraph" unicode="&#xb6;" horiz-adv-x="650" 
d="M285 722h221v-868h-65v808h-118v-808h-65v482q-79 0 -135.5 57.5t-56.5 132.5q0 96 60 146t159 50z" />
    <glyph glyph-name="periodcentered" unicode="&#xb7;" horiz-adv-x="278" 
d="M99 294h80v-86h-80v86z" />
    <glyph glyph-name="cedilla" unicode="&#xb8;" horiz-adv-x="278" 
d="M125 5h23l-15 -55q57 0 79 -16.5t22 -47.5q0 -69 -109 -69q-23 0 -97 22l7 28q70 -25 90 -25q53 0 53 43q0 36 -49 36q-14 0 -32 -3z" />
    <glyph glyph-name="onesuperior" unicode="&#xb9;" horiz-adv-x="360" 
d="M187 693h49v-409h-51v356q-41 -36 -102 -62v50q56 20 104 65z" />
    <glyph glyph-name="ordmasculine" unicode="&#xba;" horiz-adv-x="334" 
d="M319 578q0 -69 -40.5 -114.5t-111.5 -45.5q-69 0 -110.5 45t-41.5 115q0 71 42 115t110 44q69 0 110.5 -45t41.5 -114zM167 458q45 0 73.5 34t28.5 86q0 49 -27.5 84t-74.5 35t-74.5 -34.5t-27.5 -84.5q0 -52 28 -86t74 -34z" />
    <glyph glyph-name="guillemotright" unicode="&#xbb;" 
d="M210 267l-92 195h50l106 -195l-106 -195h-51zM390 267l-92 195h50l106 -195l-106 -195h-51z" />
    <glyph glyph-name="onequarter" unicode="&#xbc;" horiz-adv-x="834" 
d="M139 693h49v-409h-51v356q-41 -36 -102 -62v50q56 20 104 65zM156 0l417 707h53l-415 -707h-55zM655 415h63v-274h67v-44h-67v-97h-51v97h-200v37zM666 359l-142 -218h143v218h-1z" />
    <glyph glyph-name="onehalf" unicode="&#xbd;" horiz-adv-x="834" 
d="M141 693h49v-409h-51v356q-41 -36 -102 -62v50q56 20 104 65zM150 0l417 707h53l-415 -707h-55zM657 424q58 0 96 -31t38 -82q0 -46 -38 -99t-97.5 -108t-60.5 -56h202v-48h-282v41q222 185 222 267q0 28 -22.5 48t-58.5 20q-38 0 -63.5 -20.5t-25.5 -50.5h-48
q0 54 39 86.5t99 32.5z" />
    <glyph glyph-name="threequarters" unicode="&#xbe;" horiz-adv-x="834" 
d="M173 708q69 0 110 -30t41 -82q0 -34 -24 -59t-68 -35v-2q45 -9 72 -39t27 -70q0 -53 -45 -85.5t-109 -32.5q-66 0 -107 32t-41 85h54q1 -31 28 -50t65 -19q46 0 73.5 20t27.5 55q0 37 -28 60t-72 23q-1 0 -23 -2v48q9 -1 19 -1q46 0 71.5 20t25.5 54q0 27 -25.5 44.5
t-65.5 17.5q-80 0 -90 -62h-54q0 48 39.5 79t98.5 31zM213 0l417 707h53l-415 -707h-55zM666 415h63v-274h67v-44h-67v-97h-51v97h-200v37zM677 359l-142 -218h143v218h-1z" />
    <glyph glyph-name="questiondown" unicode="&#xbf;" horiz-adv-x="500" 
d="M255 542h80v-86h-80v86zM265 303v73h60v-108q0 -46 -91 -125q-95 -83 -95 -154q0 -59 42 -90t120 -31q44 0 94 15v-61q-47 -14 -109 -14q-97 0 -154.5 49t-57.5 130q0 84 84 165q83 79 99 103q8 11 8 48z" />
    <glyph glyph-name="Agrave" unicode="&#xc0;" horiz-adv-x="667" 
d="M295 722h76l288 -722h-71l-77 195h-359l-76 -195h-67zM332 662l-159 -407h315zM215 927h80l91 -143h-44z" />
    <glyph glyph-name="Aacute" unicode="&#xc1;" horiz-adv-x="667" 
d="M295 722h76l288 -722h-71l-77 195h-359l-76 -195h-67zM332 662l-159 -407h315zM373 927h80l-127 -143h-44z" />
    <glyph glyph-name="Acircumflex" unicode="&#xc2;" horiz-adv-x="667" 
d="M295 722h76l288 -722h-71l-77 195h-359l-76 -195h-67zM332 662l-159 -407h315zM298 927h73l99 -145h-47l-89 106l-90 -106h-46z" />
    <glyph glyph-name="Atilde" unicode="&#xc3;" horiz-adv-x="667" 
d="M295 722h76l288 -722h-71l-77 195h-359l-76 -195h-67zM332 662l-159 -407h315zM434 915h38q-22 -85 -90 -85q-13 0 -46 11q-30 10 -54 10q-40 0 -47 -29h-38q9 39 32.5 60t57.5 21q20 0 61 -13q26 -8 36 -8q38 0 50 33z" />
    <glyph glyph-name="Adieresis" unicode="&#xc4;" horiz-adv-x="667" 
d="M295 722h76l288 -722h-71l-77 195h-359l-76 -195h-67zM332 662l-159 -407h315zM210 912h74v-88h-74v88zM384 912h74v-88h-74v88z" />
    <glyph glyph-name="Aring" unicode="&#xc5;" horiz-adv-x="667" 
d="M295 722h76l288 -722h-71l-77 195h-359l-76 -195h-67zM332 662l-159 -407h315zM334 962q39 0 66 -27.5t27 -65.5q0 -37 -27 -64.5t-66 -27.5q-38 0 -65 27t-27 65t27 65.5t65 27.5zM278 869q0 -22 16 -39t40 -17t40 17t16 39t-16.5 39t-39.5 17t-39.5 -16t-16.5 -40z" />
    <glyph glyph-name="AE" unicode="&#xc6;" horiz-adv-x="1000" 
d="M426 722h499v-60h-389l43 -259h328v-60h-319l47 -283h299v-60h-356l-34 196h-350l-114 -196h-72zM465 662l-237 -406h308l-69 406h-2z" />
    <glyph glyph-name="Ccedilla" unicode="&#xc7;" horiz-adv-x="667" 
d="M612 553h-70q-7 58 -53 91t-117 33q-117 0 -179 -86t-62 -230t62 -230t179 -86q68 0 117.5 35t60.5 95h70q-13 -84 -84 -137t-164 -53h-9l-10 -35q101 0 101 -64q0 -36 -32 -54q-30 -15 -79 -15q-21 0 -95 22l7 28q59 -24 93 -24q50 0 50 42q0 36 -49 36q-13 0 -32 -3
l23 70q-130 11 -204.5 109.5t-74.5 263.5q0 172 82.5 274t228.5 102q103 0 168 -48.5t72 -135.5z" />
    <glyph glyph-name="Egrave" unicode="&#xc8;" horiz-adv-x="611" 
d="M102 722h429v-60h-364v-259h350v-60h-350v-283h379v-60h-444v722zM187 927h80l91 -143h-44z" />
    <glyph glyph-name="Eacute" unicode="&#xc9;" horiz-adv-x="611" 
d="M102 722h429v-60h-364v-259h350v-60h-350v-283h379v-60h-444v722zM345 927h80l-127 -143h-44z" />
    <glyph glyph-name="Ecircumflex" unicode="&#xca;" horiz-adv-x="611" 
d="M102 722h429v-60h-364v-259h350v-60h-350v-283h379v-60h-444v722zM270 927h73l99 -145h-47l-89 106l-90 -106h-46z" />
    <glyph glyph-name="Edieresis" unicode="&#xcb;" horiz-adv-x="611" 
d="M102 722h429v-60h-364v-259h350v-60h-350v-283h379v-60h-444v722zM182 912h74v-88h-74v88zM356 912h74v-88h-74v88z" />
    <glyph glyph-name="Igrave" unicode="&#xcc;" horiz-adv-x="278" 
d="M107 725h65v-725h-65v725zM20 927h80l91 -143h-44z" />
    <glyph glyph-name="Iacute" unicode="&#xcd;" horiz-adv-x="278" 
d="M107 725h65v-725h-65v725zM178 927h80l-127 -143h-44z" />
    <glyph glyph-name="Icircumflex" unicode="&#xce;" horiz-adv-x="278" 
d="M107 725h65v-725h-65v725zM103 927h73l99 -145h-47l-89 106l-90 -106h-46z" />
    <glyph glyph-name="Idieresis" unicode="&#xcf;" horiz-adv-x="278" 
d="M107 725h65v-725h-65v725zM15 912h74v-88h-74v88zM189 912h74v-88h-74v88z" />
    <glyph glyph-name="Eth" unicode="&#xd0;" horiz-adv-x="722" 
d="M91 722h196q180 0 275.5 -92.5t95.5 -268.5q0 -175 -95 -268t-273 -93h-199v375h-68v45h68v302zM272 662h-116v-242h216v-45h-216v-315h149q137 0 210 75.5t73 225.5q0 147 -78.5 224t-237.5 77z" />
    <glyph glyph-name="Ntilde" unicode="&#xd1;" horiz-adv-x="722" 
d="M92 722h74l398 -635h2v635h65v-722h-82l-390 624h-2v-624h-65v722zM461 915h38q-22 -85 -90 -85q-13 0 -46 11q-30 10 -54 10q-40 0 -47 -29h-38q9 39 32.5 60t57.5 21q20 0 61 -13q26 -8 36 -8q38 0 50 33z" />
    <glyph glyph-name="Ograve" unicode="&#xd2;" horiz-adv-x="778" 
d="M389 737q157 0 239.5 -105t82.5 -271q0 -167 -82.5 -271.5t-239.5 -104.5t-239.5 105t-82.5 271q0 108 34 191.5t108 134t180 50.5zM137 361q0 -86 25.5 -155.5t84 -115t142.5 -45.5t142.5 45.5t84 115t25.5 155.5t-25.5 155.5t-84 115t-143.5 45.5q-83 0 -141.5 -45.5
t-84 -115t-25.5 -155.5zM270 927h80l91 -143h-44z" />
    <glyph glyph-name="Oacute" unicode="&#xd3;" horiz-adv-x="778" 
d="M389 737q157 0 239.5 -105t82.5 -271q0 -167 -82.5 -271.5t-239.5 -104.5t-239.5 105t-82.5 271q0 108 34 191.5t108 134t180 50.5zM137 361q0 -86 25.5 -155.5t84 -115t142.5 -45.5t142.5 45.5t84 115t25.5 155.5t-25.5 155.5t-84 115t-143.5 45.5q-83 0 -141.5 -45.5
t-84 -115t-25.5 -155.5zM428 927h80l-127 -143h-44z" />
    <glyph glyph-name="Ocircumflex" unicode="&#xd4;" horiz-adv-x="778" 
d="M389 737q157 0 239.5 -105t82.5 -271q0 -167 -82.5 -271.5t-239.5 -104.5t-239.5 105t-82.5 271q0 108 34 191.5t108 134t180 50.5zM137 361q0 -86 25.5 -155.5t84 -115t142.5 -45.5t142.5 45.5t84 115t25.5 155.5t-25.5 155.5t-84 115t-143.5 45.5q-83 0 -141.5 -45.5
t-84 -115t-25.5 -155.5zM353 927h73l99 -145h-47l-89 106l-90 -106h-46z" />
    <glyph glyph-name="Otilde" unicode="&#xd5;" horiz-adv-x="778" 
d="M389 737q157 0 239.5 -105t82.5 -271q0 -167 -82.5 -271.5t-239.5 -104.5t-239.5 105t-82.5 271q0 108 34 191.5t108 134t180 50.5zM137 361q0 -86 25.5 -155.5t84 -115t142.5 -45.5t142.5 45.5t84 115t25.5 155.5t-25.5 155.5t-84 115t-143.5 45.5q-83 0 -141.5 -45.5
t-84 -115t-25.5 -155.5zM489 915h38q-22 -85 -90 -85q-13 0 -46 11q-30 10 -54 10q-40 0 -47 -29h-38q9 39 32.5 60t57.5 21q20 0 61 -13q26 -8 36 -8q38 0 50 33z" />
    <glyph glyph-name="Odieresis" unicode="&#xd6;" horiz-adv-x="778" 
d="M389 737q157 0 239.5 -105t82.5 -271q0 -167 -82.5 -271.5t-239.5 -104.5t-239.5 105t-82.5 271q0 108 34 191.5t108 134t180 50.5zM137 361q0 -86 25.5 -155.5t84 -115t142.5 -45.5t142.5 45.5t84 115t25.5 155.5t-25.5 155.5t-84 115t-143.5 45.5q-83 0 -141.5 -45.5
t-84 -115t-25.5 -155.5zM265 912h74v-88h-74v88zM439 912h74v-88h-74v88z" />
    <glyph glyph-name="multiply" unicode="&#xd7;" horiz-adv-x="660" 
d="M117 502l214 -212l212 212l37 -38l-212 -211l212 -211l-37 -36l-212 210l-214 -210l-37 36l214 211l-214 211z" />
    <glyph glyph-name="Oslash" unicode="&#xd8;" horiz-adv-x="778" 
d="M617 645l82 92l27 -25l-85 -97q70 -99 70 -254q0 -173 -85.5 -274.5t-236.5 -101.5q-140 0 -226 91l-80 -91l-29 27l84 94q-71 95 -71 255q0 173 85.5 274.5t236.5 101.5q142 0 228 -92zM186 160l385 433q-66 84 -183 84t-184 -87t-67 -229q0 -123 49 -201zM593 561
l-384 -434q67 -82 180 -82q121 0 186.5 89t65.5 227q0 116 -48 200z" />
    <glyph glyph-name="Ugrave" unicode="&#xd9;" horiz-adv-x="722" 
d="M97 722h65v-459q0 -96 52.5 -157t146.5 -61q95 0 147 61t52 160v456h65v-460q0 -128 -69 -202.5t-195 -74.5t-195 74t-69 201v462zM242 927h80l91 -143h-44z" />
    <glyph glyph-name="Uacute" unicode="&#xda;" horiz-adv-x="722" 
d="M97 722h65v-459q0 -96 52.5 -157t146.5 -61q95 0 147 61t52 160v456h65v-460q0 -128 -69 -202.5t-195 -74.5t-195 74t-69 201v462zM400 927h80l-127 -143h-44z" />
    <glyph glyph-name="Ucircumflex" unicode="&#xdb;" horiz-adv-x="722" 
d="M97 722h65v-459q0 -96 52.5 -157t146.5 -61q95 0 147 61t52 160v456h65v-460q0 -128 -69 -202.5t-195 -74.5t-195 74t-69 201v462zM325 927h73l99 -145h-47l-89 106l-90 -106h-46z" />
    <glyph glyph-name="Udieresis" unicode="&#xdc;" horiz-adv-x="722" 
d="M97 722h65v-459q0 -96 52.5 -157t146.5 -61q95 0 147 61t52 160v456h65v-460q0 -128 -69 -202.5t-195 -74.5t-195 74t-69 201v462zM237 912h74v-88h-74v88zM411 912h74v-88h-74v88z" />
    <glyph glyph-name="Yacute" unicode="&#xdd;" horiz-adv-x="611" 
d="M8 722h83l221 -349l221 349h70l-264 -408v-314h-65v312zM371 927h80l-127 -143h-44z" />
    <glyph glyph-name="Thorn" unicode="&#xde;" horiz-adv-x="611" 
d="M100 722h65v-155h149q262 0 262 -204t-262 -204h-149v-159h-65v722zM165 219h159q182 0 182 144t-183 144h-158v-288z" />
    <glyph glyph-name="germandbls" unicode="&#xdf;" horiz-adv-x="611" 
d="M292 737q79 0 129.5 -43.5t50.5 -110.5q0 -40 -40 -83q-9 -9 -26 -25.5t-26.5 -26t-17.5 -23t-8 -24.5q0 -28 23.5 -48t81.5 -52q56 -30 83.5 -64t27.5 -83q0 -76 -49 -122.5t-123 -46.5q-73 0 -116 42t-46 114h65v-5q0 -42 26.5 -69t68.5 -27q52 0 80.5 29t28.5 81
q0 35 -25 60.5t-82 55.5q-55 29 -82 59t-27 70q0 47 61 103q32 29 44.5 47.5t12.5 38.5q0 44 -34.5 71t-87.5 27q-68 0 -103 -53t-35 -153v-476h-60v508q0 108 52 168.5t153 60.5z" />
    <glyph glyph-name="agrave" unicode="&#xe0;" horiz-adv-x="500" 
d="M246 517q88 0 133 -42t45 -119v-273q0 -18 5 -83h-62l-2 74h-2q-13 -35 -61.5 -62t-98.5 -27q-74 0 -120.5 42.5t-46.5 112.5q0 65 45 108.5t112 52.5q31 4 117 6l54 1v33q0 62 -28 91.5t-91 29.5q-114 0 -123 -87h-64q10 70 58.5 106t129.5 36zM101 140q0 -47 31 -73.5
t82 -26.5q145 0 151 172q0 6 -0.5 19.5t-0.5 21.5l-60 -1q-108 -1 -155.5 -28t-47.5 -84zM131 707h80l91 -143h-44z" />
    <glyph glyph-name="aacute" unicode="&#xe1;" horiz-adv-x="500" 
d="M246 517q88 0 133 -42t45 -119v-273q0 -18 5 -83h-62l-2 74h-2q-13 -35 -61.5 -62t-98.5 -27q-74 0 -120.5 42.5t-46.5 112.5q0 65 45 108.5t112 52.5q31 4 117 6l54 1v33q0 62 -28 91.5t-91 29.5q-114 0 -123 -87h-64q10 70 58.5 106t129.5 36zM101 140q0 -47 31 -73.5
t82 -26.5q145 0 151 172q0 6 -0.5 19.5t-0.5 21.5l-60 -1q-108 -1 -155.5 -28t-47.5 -84zM289 707h80l-127 -143h-44z" />
    <glyph glyph-name="acircumflex" unicode="&#xe2;" horiz-adv-x="500" 
d="M246 517q88 0 133 -42t45 -119v-273q0 -18 5 -83h-62l-2 74h-2q-13 -35 -61.5 -62t-98.5 -27q-74 0 -120.5 42.5t-46.5 112.5q0 65 45 108.5t112 52.5q31 4 117 6l54 1v33q0 62 -28 91.5t-91 29.5q-114 0 -123 -87h-64q10 70 58.5 106t129.5 36zM101 140q0 -47 31 -73.5
t82 -26.5q145 0 151 172q0 6 -0.5 19.5t-0.5 21.5l-60 -1q-108 -1 -155.5 -28t-47.5 -84zM214 707h73l99 -145h-47l-89 106l-90 -106h-46z" />
    <glyph glyph-name="atilde" unicode="&#xe3;" horiz-adv-x="500" 
d="M246 517q88 0 133 -42t45 -119v-273q0 -18 5 -83h-62l-2 74h-2q-13 -35 -61.5 -62t-98.5 -27q-74 0 -120.5 42.5t-46.5 112.5q0 65 45 108.5t112 52.5q31 4 117 6l54 1v33q0 62 -28 91.5t-91 29.5q-114 0 -123 -87h-64q10 70 58.5 106t129.5 36zM101 140q0 -47 31 -73.5
t82 -26.5q145 0 151 172q0 6 -0.5 19.5t-0.5 21.5l-60 -1q-108 -1 -155.5 -28t-47.5 -84zM350 695h38q-22 -85 -90 -85q-13 0 -46 11q-30 10 -54 10q-40 0 -47 -29h-38q9 39 32.5 60t57.5 21q20 0 61 -13q26 -8 36 -8q38 0 50 33z" />
    <glyph glyph-name="adieresis" unicode="&#xe4;" horiz-adv-x="500" 
d="M246 517q88 0 133 -42t45 -119v-273q0 -18 5 -83h-62l-2 74h-2q-13 -35 -61.5 -62t-98.5 -27q-74 0 -120.5 42.5t-46.5 112.5q0 65 45 108.5t112 52.5q31 4 117 6l54 1v33q0 62 -28 91.5t-91 29.5q-114 0 -123 -87h-64q10 70 58.5 106t129.5 36zM101 140q0 -47 31 -73.5
t82 -26.5q145 0 151 172q0 6 -0.5 19.5t-0.5 21.5l-60 -1q-108 -1 -155.5 -28t-47.5 -84zM128 719h74v-88h-74v88zM302 719h74v-88h-74v88z" />
    <glyph glyph-name="aring" unicode="&#xe5;" horiz-adv-x="500" 
d="M246 517q88 0 133 -42t45 -119v-273q0 -18 5 -83h-62l-2 74h-2q-13 -35 -61.5 -62t-98.5 -27q-74 0 -120.5 42.5t-46.5 112.5q0 65 45 108.5t112 52.5q31 4 117 6l54 1v33q0 62 -28 91.5t-91 29.5q-114 0 -123 -87h-64q10 70 58.5 106t129.5 36zM101 140q0 -47 31 -73.5
t82 -26.5q145 0 151 172q0 6 -0.5 19.5t-0.5 21.5l-60 -1q-108 -1 -155.5 -28t-47.5 -84zM250 743q39 0 66 -27.5t27 -65.5q0 -37 -27 -64.5t-66 -27.5q-38 0 -65 27t-27 65t27 65.5t65 27.5zM194 650q0 -22 16 -39t40 -17t40 17t16 39t-16.5 39t-39.5 17t-39.5 -16
t-16.5 -40z" />
    <glyph glyph-name="ae" unicode="&#xe6;" horiz-adv-x="833" 
d="M246 517q56 0 101 -29t56 -76h2q21 48 63 76.5t92 28.5q103 0 160 -70t58 -203h-350v-10q0 -92 36 -143t100 -51q51 0 92 33.5t53 86.5h63q-20 -85 -75 -130t-126 -45q-51 0 -101.5 31.5t-71.5 87.5q-21 -56 -73 -87.5t-122 -31.5q-77 0 -122 41.5t-45 113.5
q0 52 33.5 90.5t93.5 55.5q44 13 144 13h56v55q-5 57 -32.5 82.5t-85.5 25.5q-114 0 -123 -87h-64q21 142 188 142zM428 307v-8h285q0 78 -38 120.5t-109 42.5q-57 0 -97.5 -46.5t-40.5 -108.5zM101 134q0 -44 29 -69t86 -25q147 0 147 182v22h-103q-86 0 -122.5 -26.5
t-36.5 -83.5z" />
    <glyph glyph-name="ccedilla" unicode="&#xe7;" horiz-adv-x="500" 
d="M270 517q80 0 134 -45.5t58 -123.5h-65q-7 114 -137 114q-65 0 -107 -59.5t-42 -150.5q0 -90 42 -151t107 -61q56 0 94.5 31.5t42.5 85.5h65q-23 -168 -189 -171l-10 -36q57 0 79 -16.5t22 -46.5q0 -70 -108 -70q-24 0 -98 22l7 28q75 -24 88 -24q30 0 42.5 10t12.5 32
q0 36 -49 36q-14 0 -32 -3l22 68q-93 6 -148 78.5t-55 186.5q0 115 61.5 190.5t162.5 75.5z" />
    <glyph glyph-name="egrave" unicode="&#xe8;" 
d="M274 517q111 0 169.5 -71t59.5 -209h-388q2 -95 47.5 -146t126.5 -51q52 0 92.5 33.5t52.5 86.5h63q-45 -175 -226 -175q-103 0 -162 74.5t-59 191.5q0 116 61.5 191t162.5 75zM117 292h321q-6 80 -49 125t-115 45q-64 0 -106 -45t-51 -125zM159 707h80l91 -143h-44z" />
    <glyph glyph-name="eacute" unicode="&#xe9;" 
d="M274 517q111 0 169.5 -71t59.5 -209h-388q2 -95 47.5 -146t126.5 -51q52 0 92.5 33.5t52.5 86.5h63q-45 -175 -226 -175q-103 0 -162 74.5t-59 191.5q0 116 61.5 191t162.5 75zM117 292h321q-6 80 -49 125t-115 45q-64 0 -106 -45t-51 -125zM317 707h80l-127 -143h-44z
" />
    <glyph glyph-name="ecircumflex" unicode="&#xea;" 
d="M274 517q111 0 169.5 -71t59.5 -209h-388q2 -95 47.5 -146t126.5 -51q52 0 92.5 33.5t52.5 86.5h63q-45 -175 -226 -175q-103 0 -162 74.5t-59 191.5q0 116 61.5 191t162.5 75zM117 292h321q-6 80 -49 125t-115 45q-64 0 -106 -45t-51 -125zM242 707h73l99 -145h-47
l-89 106l-90 -106h-46z" />
    <glyph glyph-name="edieresis" unicode="&#xeb;" 
d="M274 517q111 0 169.5 -71t59.5 -209h-388q2 -95 47.5 -146t126.5 -51q52 0 92.5 33.5t52.5 86.5h63q-45 -175 -226 -175q-103 0 -162 74.5t-59 191.5q0 116 61.5 191t162.5 75zM117 292h321q-6 80 -49 125t-115 45q-64 0 -106 -45t-51 -125zM159 719h74v-88h-74v88z
M333 719h74v-88h-74v88z" />
    <glyph glyph-name="igrave" unicode="&#xec;" horiz-adv-x="222" 
d="M81 0v502h60v-502h-60zM-8 707h80l91 -143h-44z" />
    <glyph glyph-name="iacute" unicode="&#xed;" horiz-adv-x="222" 
d="M81 0v502h60v-502h-60zM150 707h80l-127 -143h-44z" />
    <glyph glyph-name="icircumflex" unicode="&#xee;" horiz-adv-x="222" 
d="M81 0v502h60v-502h-60zM75 707h73l99 -145h-47l-89 106l-90 -106h-46z" />
    <glyph glyph-name="idieresis" unicode="&#xef;" horiz-adv-x="222" 
d="M81 0v502h60v-502h-60zM-13 719h74v-88h-74v88zM161 719h74v-88h-74v88z" />
    <glyph glyph-name="eth" unicode="&#xf0;" 
d="M299 692l93 58l30 -28l-85 -53q175 -118 175 -400q0 -136 -61 -210t-173 -74q-107 0 -170.5 71.5t-63.5 180.5t62 181t164 72q127 0 178 -129l2 2q-9 91 -51.5 163.5t-109.5 112.5l-93 -57l-29 29l83 51q-33 16 -95 35l17 40q71 -17 127 -45zM109 237q0 -84 45.5 -142
t123.5 -58q77 0 123 58t46 142t-45.5 142.5t-124.5 58.5q-77 0 -122.5 -58.5t-45.5 -142.5z" />
    <glyph glyph-name="ntilde" unicode="&#xf1;" 
d="M299 517q87 0 132 -53.5t45 -146.5v-317h-60v328q0 60 -35 97t-97 37q-67 0 -105.5 -48t-38.5 -123v-291h-60v396q0 41 -5 106h62l3 -74l2 -2q51 91 157 91zM378 695h38q-22 -85 -90 -85q-13 0 -46 11q-30 10 -54 10q-40 0 -47 -29h-38q9 39 32.5 60t57.5 21q20 0 61 -13
q26 -8 36 -8q38 0 50 33z" />
    <glyph glyph-name="ograve" unicode="&#xf2;" 
d="M278 517q108 0 171 -76t63 -190t-63 -190t-171 -76t-171 75.5t-63 190.5q0 114 63 190t171 76zM109 251q0 -88 45.5 -149.5t123.5 -61.5q77 0 123 61t46 150q0 87 -45 149t-125 62q-77 0 -122.5 -61.5t-45.5 -149.5zM159 707h80l91 -143h-44z" />
    <glyph glyph-name="oacute" unicode="&#xf3;" 
d="M278 517q108 0 171 -76t63 -190t-63 -190t-171 -76t-171 75.5t-63 190.5q0 114 63 190t171 76zM109 251q0 -88 45.5 -149.5t123.5 -61.5q77 0 123 61t46 150q0 87 -45 149t-125 62q-77 0 -122.5 -61.5t-45.5 -149.5zM317 707h80l-127 -143h-44z" />
    <glyph glyph-name="ocircumflex" unicode="&#xf4;" 
d="M278 517q108 0 171 -76t63 -190t-63 -190t-171 -76t-171 75.5t-63 190.5q0 114 63 190t171 76zM109 251q0 -88 45.5 -149.5t123.5 -61.5q77 0 123 61t46 150q0 87 -45 149t-125 62q-77 0 -122.5 -61.5t-45.5 -149.5zM242 707h73l99 -145h-47l-89 106l-90 -106h-46z" />
    <glyph glyph-name="otilde" unicode="&#xf5;" 
d="M278 517q108 0 171 -76t63 -190t-63 -190t-171 -76t-171 75.5t-63 190.5q0 114 63 190t171 76zM109 251q0 -88 45.5 -149.5t123.5 -61.5q77 0 123 61t46 150q0 87 -45 149t-125 62q-77 0 -122.5 -61.5t-45.5 -149.5zM378 695h38q-22 -85 -90 -85q-13 0 -46 11
q-30 10 -54 10q-40 0 -47 -29h-38q9 39 32.5 60t57.5 21q20 0 61 -13q26 -8 36 -8q38 0 50 33z" />
    <glyph glyph-name="odieresis" unicode="&#xf6;" 
d="M278 517q108 0 171 -76t63 -190t-63 -190t-171 -76t-171 75.5t-63 190.5q0 114 63 190t171 76zM109 251q0 -88 45.5 -149.5t123.5 -61.5q77 0 123 61t46 150q0 87 -45 149t-125 62q-77 0 -122.5 -61.5t-45.5 -149.5zM159 719h74v-88h-74v88zM333 719h74v-88h-74v88z" />
    <glyph glyph-name="divide" unicode="&#xf7;" horiz-adv-x="660" 
d="M293 502h75v-88h-75v88zM80 281h500v-60h-500v60zM293 88h75v-88h-75v88z" />
    <glyph glyph-name="oslash" unicode="&#xf8;" 
d="M278 517q97 0 159 -64l59 64l24 -25l-60 -66q52 -74 52 -175q0 -114 -63.5 -190t-170.5 -76q-98 0 -161 65l-60 -65l-24 25l62 68q-51 71 -51 173q0 114 63 190t171 76zM109 251q0 -69 31 -124l255 280q-47 55 -118 55q-77 0 -122.5 -61.5t-45.5 -149.5zM415 377
l-256 -280q45 -57 119 -57q77 0 123 60.5t46 150.5q0 69 -32 126z" />
    <glyph glyph-name="ugrave" unicode="&#xf9;" 
d="M80 185v317h60v-327q0 -61 34.5 -98t97.5 -37q69 0 106.5 49t37.5 120v293h60v-396q0 -19 1 -31l4 -75h-62l-3 74l-2 2q-51 -91 -157 -91q-87 0 -132 53.5t-45 146.5zM159 707h80l91 -143h-44z" />
    <glyph glyph-name="uacute" unicode="&#xfa;" 
d="M80 185v317h60v-327q0 -61 34.5 -98t97.5 -37q69 0 106.5 49t37.5 120v293h60v-396q0 -19 1 -31l4 -75h-62l-3 74l-2 2q-51 -91 -157 -91q-87 0 -132 53.5t-45 146.5zM317 707h80l-127 -143h-44z" />
    <glyph glyph-name="ucircumflex" unicode="&#xfb;" 
d="M80 185v317h60v-327q0 -61 34.5 -98t97.5 -37q69 0 106.5 49t37.5 120v293h60v-396q0 -19 1 -31l4 -75h-62l-3 74l-2 2q-51 -91 -157 -91q-87 0 -132 53.5t-45 146.5zM242 707h73l99 -145h-47l-89 106l-90 -106h-46z" />
    <glyph glyph-name="udieresis" unicode="&#xfc;" 
d="M80 185v317h60v-327q0 -61 34.5 -98t97.5 -37q69 0 106.5 49t37.5 120v293h60v-396q0 -19 1 -31l4 -75h-62l-3 74l-2 2q-51 -91 -157 -91q-87 0 -132 53.5t-45 146.5zM159 719h74v-88h-74v88zM333 719h74v-88h-74v88z" />
    <glyph glyph-name="yacute" unicode="&#xfd;" horiz-adv-x="500" 
d="M8 502h73l169 -420l168 420h65l-277 -694h-66l76 192zM289 707h80l-127 -143h-44z" />
    <glyph glyph-name="thorn" unicode="&#xfe;" 
d="M70 -192v914h60v-294l2 -2q25 42 72 66.5t101 24.5q96 0 150.5 -72.5t54.5 -191.5q0 -116 -54 -192t-149 -76q-111 0 -175 93h-2v-270h-60zM130 263q0 -107 44 -165t126 -58q71 0 108 60t37 160q0 91 -40 146.5t-114 55.5q-76 0 -118.5 -53.5t-42.5 -145.5z" />
    <glyph glyph-name="ydieresis" unicode="&#xff;" horiz-adv-x="500" 
d="M8 502h73l169 -420l168 420h65l-277 -694h-66l76 192zM128 719h74v-88h-74v88zM302 719h74v-88h-74v88z" />
    <glyph glyph-name="Amacron" unicode="&#x100;" horiz-adv-x="667" 
d="M295 722h76l288 -722h-71l-77 195h-359l-76 -195h-67zM332 662l-159 -407h315zM210 893h245v-50h-245v50z" />
    <glyph glyph-name="amacron" unicode="&#x101;" horiz-adv-x="500" 
d="M246 517q88 0 133 -42t45 -119v-273q0 -18 5 -83h-62l-2 74h-2q-13 -35 -61.5 -62t-98.5 -27q-74 0 -120.5 42.5t-46.5 112.5q0 65 45 108.5t112 52.5q31 4 117 6l54 1v33q0 62 -28 91.5t-91 29.5q-114 0 -123 -87h-64q10 70 58.5 106t129.5 36zM101 140q0 -47 31 -73.5
t82 -26.5q145 0 151 172q0 6 -0.5 19.5t-0.5 21.5l-60 -1q-108 -1 -155.5 -28t-47.5 -84zM130 707h245v-60h-245v60z" />
    <glyph glyph-name="Abreve" unicode="&#x102;" horiz-adv-x="667" 
d="M295 722h76l288 -722h-71l-77 195h-359l-76 -195h-67zM332 662l-159 -407h315zM209 937h23q6 -29 31.5 -45.5t64.5 -16.5q40 0 68.5 16.5t35.5 45.5h21q-6 -108 -124 -108q-54 0 -86.5 28.5t-33.5 79.5z" />
    <glyph glyph-name="abreve" unicode="&#x103;" horiz-adv-x="500" 
d="M246 517q88 0 133 -42t45 -119v-273q0 -18 5 -83h-62l-2 74h-2q-13 -35 -61.5 -62t-98.5 -27q-74 0 -120.5 42.5t-46.5 112.5q0 65 45 108.5t112 52.5q31 4 117 6l54 1v33q0 62 -28 91.5t-91 29.5q-114 0 -123 -87h-64q10 70 58.5 106t129.5 36zM101 140q0 -47 31 -73.5
t82 -26.5q145 0 151 172q0 6 -0.5 19.5t-0.5 21.5l-60 -1q-108 -1 -155.5 -28t-47.5 -84zM127 717h23q6 -29 31.5 -45.5t64.5 -16.5q40 0 68.5 16.5t35.5 45.5h21q-6 -108 -124 -108q-54 0 -86.5 28.5t-33.5 79.5z" />
    <glyph glyph-name="Aogonek" unicode="&#x104;" horiz-adv-x="667" 
d="M295 722h76l288 -722h-28q-53 -33 -71.5 -54.5t-18.5 -48.5q0 -42 51 -42q27 0 60 11v-34q-40 -14 -69 -14q-41 0 -64.5 19.5t-23.5 54.5q0 66 96 108h-3l-77 195h-359l-76 -195h-67zM332 662l-159 -407h315z" />
    <glyph glyph-name="aogonek" unicode="&#x105;" horiz-adv-x="500" 
d="M246 517q88 0 133 -42t45 -119v-273q0 -18 5 -83h-14q-51 -31 -69 -54q-19 -22 -19 -49q0 -42 50 -42q27 0 61 11v-34q-40 -14 -68 -14q-41 0 -65 19.5t-24 54.5q0 67 93 108h-7l-2 74h-2q-13 -35 -61.5 -62t-98.5 -27q-74 0 -120.5 42.5t-46.5 112.5q0 65 45 108.5
t112 52.5q31 4 117 6l54 1v33q0 62 -28 91.5t-91 29.5q-114 0 -123 -87h-64q10 70 58.5 106t129.5 36zM101 140q0 -47 31 -73.5t82 -26.5q145 0 151 172q0 6 -0.5 19.5t-0.5 21.5l-60 -1q-108 -1 -155.5 -28t-47.5 -84z" />
    <glyph glyph-name="Cacute" unicode="&#x106;" horiz-adv-x="667" 
d="M612 553h-70q-9 62 -55.5 93t-114.5 31q-64 0 -111.5 -26t-75 -71.5t-41 -100t-13.5 -118.5t13 -118.5t40.5 -100t75.5 -71.5t112 -26q66 0 116 34t62 96h70q-14 -86 -85.5 -138t-162.5 -52q-79 0 -139.5 30t-97.5 82.5t-55.5 119t-18.5 144.5q0 105 32 188t104 135.5
t175 52.5q98 0 165.5 -47t74.5 -137zM417 927h80l-127 -143h-44z" />
    <glyph glyph-name="cacute" unicode="&#x107;" horiz-adv-x="500" 
d="M270 517q80 0 134 -45.5t58 -123.5h-65q-7 114 -137 114q-65 0 -107 -59.5t-42 -150.5q0 -90 42 -151t107 -61q56 0 94.5 31.5t42.5 85.5h65q-24 -172 -196 -172q-101 0 -160.5 74t-59.5 192q0 115 61.5 190.5t162.5 75.5zM312 707h80l-127 -143h-44z" />
    <glyph glyph-name="Ccircumflex" unicode="&#x108;" horiz-adv-x="667" 
d="M612 553h-70q-9 62 -55.5 93t-114.5 31q-64 0 -111.5 -26t-75 -71.5t-41 -100t-13.5 -118.5t13 -118.5t40.5 -100t75.5 -71.5t112 -26q66 0 116 34t62 96h70q-14 -86 -85.5 -138t-162.5 -52q-79 0 -139.5 30t-97.5 82.5t-55.5 119t-18.5 144.5q0 105 32 188t104 135.5
t175 52.5q98 0 165.5 -47t74.5 -137zM328 927h73l99 -145h-47l-89 106l-90 -106h-46z" />
    <glyph glyph-name="ccircumflex" unicode="&#x109;" horiz-adv-x="500" 
d="M270 517q80 0 134 -45.5t58 -123.5h-65q-7 114 -137 114q-65 0 -107 -59.5t-42 -150.5q0 -90 42 -151t107 -61q56 0 94.5 31.5t42.5 85.5h65q-24 -172 -196 -172q-101 0 -160.5 74t-59.5 192q0 115 61.5 190.5t162.5 75.5zM231 707h73l99 -145h-47l-89 106l-90 -106h-46z
" />
    <glyph glyph-name="Cdotaccent" unicode="&#x10a;" horiz-adv-x="667" 
d="M612 553h-70q-9 62 -55.5 93t-114.5 31q-64 0 -111.5 -26t-75 -71.5t-41 -100t-13.5 -118.5t13 -118.5t40.5 -100t75.5 -71.5t112 -26q66 0 116 34t62 96h70q-14 -86 -85.5 -138t-162.5 -52q-79 0 -139.5 30t-97.5 82.5t-55.5 119t-18.5 144.5q0 105 32 188t104 135.5
t175 52.5q98 0 165.5 -47t74.5 -137zM327 927h74v-88h-74v88z" />
    <glyph glyph-name="cdotaccent" unicode="&#x10b;" horiz-adv-x="500" 
d="M270 517q80 0 134 -45.5t58 -123.5h-65q-7 114 -137 114q-65 0 -107 -59.5t-42 -150.5q0 -90 42 -151t107 -61q56 0 94.5 31.5t42.5 85.5h65q-24 -172 -196 -172q-101 0 -160.5 74t-59.5 192q0 115 61.5 190.5t162.5 75.5zM229 707h74v-88h-74v88z" />
    <glyph glyph-name="Ccaron" unicode="&#x10c;" horiz-adv-x="667" 
d="M612 553h-70q-9 62 -55.5 93t-114.5 31q-64 0 -111.5 -26t-75 -71.5t-41 -100t-13.5 -118.5t13 -118.5t40.5 -100t75.5 -71.5t112 -26q66 0 116 34t62 96h70q-14 -86 -85.5 -138t-162.5 -52q-79 0 -139.5 30t-97.5 82.5t-55.5 119t-18.5 144.5q0 105 32 188t104 135.5
t175 52.5q98 0 165.5 -47t74.5 -137zM328 782l-99 145h47l89 -106l90 106h46l-100 -145h-73z" />
    <glyph glyph-name="ccaron" unicode="&#x10d;" horiz-adv-x="500" 
d="M270 517q80 0 134 -45.5t58 -123.5h-65q-7 114 -137 114q-65 0 -107 -59.5t-42 -150.5q0 -90 42 -151t107 -61q56 0 94.5 31.5t42.5 85.5h65q-24 -172 -196 -172q-101 0 -160.5 74t-59.5 192q0 115 61.5 190.5t162.5 75.5zM233 562l-99 145h47l89 -106l90 106h46
l-100 -145h-73z" />
    <glyph glyph-name="Dcaron" unicode="&#x10e;" horiz-adv-x="722" 
d="M91 722h201q175 0 270.5 -93t95.5 -268q0 -179 -97 -270t-269 -91h-201v722zM272 662h-116v-602h151q138 0 209.5 77.5t71.5 223.5q0 301 -316 301zM271 782l-99 145h47l89 -106l90 106h46l-100 -145h-73z" />
    <glyph glyph-name="dcaron" unicode="&#x10f;" 
d="M426 428v294h60v-616q0 -16 4 -85q0 -3 0.5 -9.5t0.5 -11.5h-62l-3 74l-2 4q-64 -93 -172 -93q-97 0 -151.5 75.5t-54.5 192.5q0 120 55 192t151 72q53 0 99.5 -24t72.5 -67zM111 259q0 -99 36.5 -159t105.5 -60q83 0 127 58t44 165q0 90 -42.5 144.5t-120.5 54.5
q-71 0 -110.5 -55t-39.5 -148zM580 722h66l-64 -146h-40z" />
    <glyph glyph-name="Dcroat" unicode="&#x110;" horiz-adv-x="722" 
d="M91 722h196q180 0 275.5 -92.5t95.5 -268.5q0 -175 -95 -268t-273 -93h-199v375h-68v45h68v302zM272 662h-116v-242h216v-45h-216v-315h149q137 0 210 75.5t73 225.5q0 147 -78.5 224t-237.5 77z" />
    <glyph glyph-name="dcroat" unicode="&#x111;" 
d="M426 620v102h60v-102h70v-37h-70v-478q0 -54 5 -105h-62l-3 74l-2 4q-64 -93 -172 -93q-97 0 -151.5 75.5t-54.5 192.5q0 120 55 192t151 72q53 0 100 -24.5t72 -66.5l2 2v155h-129v37h129zM111 260q0 -102 37 -161t105 -59q83 0 127 58t44 165q0 88 -42.5 143.5
t-120.5 55.5q-70 0 -110 -54t-40 -148z" />
    <glyph glyph-name="Emacron" unicode="&#x112;" horiz-adv-x="611" 
d="M102 722h429v-60h-364v-259h350v-60h-350v-283h379v-60h-444v722zM200 893h245v-50h-245v50z" />
    <glyph glyph-name="emacron" unicode="&#x113;" 
d="M274 517q111 0 169.5 -71t59.5 -209h-388q2 -95 47.5 -146t126.5 -51q52 0 92.5 33.5t52.5 86.5h63q-45 -175 -226 -175q-103 0 -162 74.5t-59 191.5q0 116 61.5 191t162.5 75zM117 292h321q-6 80 -49 125t-115 45q-64 0 -106 -45t-51 -125zM160 707h245v-60h-245v60z
" />
    <glyph glyph-name="Ebreve" unicode="&#x114;" horiz-adv-x="611" 
d="M102 722h429v-60h-364v-259h350v-60h-350v-283h379v-60h-444v722zM202 937h23q6 -29 31.5 -45.5t64.5 -16.5q40 0 68.5 16.5t35.5 45.5h21q-6 -108 -124 -108q-54 0 -86.5 28.5t-33.5 79.5z" />
    <glyph glyph-name="ebreve" unicode="&#x115;" 
d="M274 517q111 0 169.5 -71t59.5 -209h-388q2 -95 47.5 -146t126.5 -51q52 0 92.5 33.5t52.5 86.5h63q-45 -175 -226 -175q-103 0 -162 74.5t-59 191.5q0 116 61.5 191t162.5 75zM117 292h321q-6 80 -49 125t-115 45q-64 0 -106 -45t-51 -125zM159 717h23q6 -29 31.5 -45.5
t64.5 -16.5q40 0 68.5 16.5t35.5 45.5h21q-6 -108 -124 -108q-54 0 -86.5 28.5t-33.5 79.5z" />
    <glyph glyph-name="Edotaccent" unicode="&#x116;" horiz-adv-x="611" 
d="M102 722h429v-60h-364v-259h350v-60h-350v-283h379v-60h-444v722zM279 927h74v-88h-74v88z" />
    <glyph glyph-name="edotaccent" unicode="&#x117;" 
d="M274 517q111 0 169.5 -71t59.5 -209h-388q2 -95 47.5 -146t126.5 -51q52 0 92.5 33.5t52.5 86.5h63q-45 -175 -226 -175q-103 0 -162 74.5t-59 191.5q0 116 61.5 191t162.5 75zM117 292h321q-6 80 -49 125t-115 45q-64 0 -106 -45t-51 -125zM248 707h74v-88h-74v88z" />
    <glyph glyph-name="Eogonek" unicode="&#x118;" horiz-adv-x="611" 
d="M102 722h429v-60h-364v-259h350v-60h-350v-283h379v-60h-26q-5 -3 -17.5 -11.5t-17.5 -12l-15 -10.5t-14 -11.5t-10.5 -12t-9 -13.5t-4.5 -14.5t-2 -17.5q0 -42 50 -42q27 0 61 11v-34q-40 -14 -68 -14q-41 0 -65 19.5t-24 54.5q0 66 96 108h-378v722z" />
    <glyph glyph-name="eogonek" unicode="&#x119;" 
d="M274 517q111 0 169.5 -70t59.5 -210h-388q3 -97 48.5 -147t125.5 -50q52 0 92.5 33.5t52.5 86.5h63q-40 -149 -172 -171q-44 -30 -58.5 -49t-14.5 -43q0 -42 51 -42q27 0 60 11v-34q-40 -14 -69 -14q-41 0 -64.5 19.5t-23.5 54.5q0 57 65 93h-2q-99 0 -159 74t-60 192
q0 116 61.5 191t162.5 75zM117 292h321q-7 82 -49 126t-115 44q-64 0 -106 -45t-51 -125z" />
    <glyph glyph-name="Ecaron" unicode="&#x11a;" horiz-adv-x="611" 
d="M102 722h429v-60h-364v-259h350v-60h-350v-283h379v-60h-444v722zM289 782l-99 145h47l89 -106l90 106h46l-100 -145h-73z" />
    <glyph glyph-name="ecaron" unicode="&#x11b;" 
d="M274 517q111 0 169.5 -71t59.5 -209h-388q2 -95 47.5 -146t126.5 -51q52 0 92.5 33.5t52.5 86.5h63q-45 -175 -226 -175q-103 0 -162 74.5t-59 191.5q0 116 61.5 191t162.5 75zM117 292h321q-6 80 -49 125t-115 45q-64 0 -106 -45t-51 -125zM241 562l-99 145h47l89 -106
l90 106h46l-100 -145h-73z" />
    <glyph glyph-name="Gcircumflex" unicode="&#x11c;" horiz-adv-x="722" 
d="M372 737q98 0 173 -52t81 -141h-74q-9 65 -59.5 99t-120.5 34q-81 0 -136.5 -48t-78.5 -117.5t-23 -151.5q0 -147 66.5 -231t204.5 -84q59 0 161 30v233h-181v60h246v-338q-121 -45 -257 -45q-102 0 -174 52.5t-104 135t-32 187.5q0 73 19.5 140t57 120.5t97.5 85
t134 31.5zM337 927h73l99 -145h-47l-89 106l-90 -106h-46z" />
    <glyph glyph-name="gcircumflex" unicode="&#x11d;" 
d="M259 517q99 0 165 -93l2 4l3 74h62q-5 -92 -5 -106v-359q0 -73 -19.5 -119t-63.5 -74q-57 -36 -136 -36q-93 0 -146.5 35.5t-53.5 99.5h65q4 -39 43 -59.5t98 -20.5q64 0 108.5 41t44.5 101v91h-2q-21 -43 -66.5 -68.5t-96.5 -25.5q-102 0 -159 67.5t-57 185.5
q0 119 56 190.5t158 71.5zM110 260q0 -85 42.5 -144t114.5 -59q74 0 116.5 57.5t42.5 147.5q0 83 -44.5 141.5t-117.5 58.5q-68 0 -111 -57.5t-43 -144.5zM235 707h73l99 -145h-47l-89 106l-90 -106h-46z" />
    <glyph glyph-name="Gbreve" unicode="&#x11e;" horiz-adv-x="722" 
d="M372 737q98 0 173 -52t81 -141h-74q-9 65 -59.5 99t-120.5 34q-81 0 -136.5 -48t-78.5 -117.5t-23 -151.5q0 -147 66.5 -231t204.5 -84q59 0 161 30v233h-181v60h246v-338q-121 -45 -257 -45q-102 0 -174 52.5t-104 135t-32 187.5q0 73 19.5 140t57 120.5t97.5 85
t134 31.5zM249 937h23q6 -29 31.5 -45.5t64.5 -16.5q40 0 68.5 16.5t35.5 45.5h21q-6 -108 -124 -108q-54 0 -86.5 28.5t-33.5 79.5z" />
    <glyph glyph-name="gbreve" unicode="&#x11f;" 
d="M259 517q99 0 165 -93l2 4l3 74h62q-5 -92 -5 -106v-359q0 -73 -19.5 -119t-63.5 -74q-57 -36 -136 -36q-93 0 -146.5 35.5t-53.5 99.5h65q4 -39 43 -59.5t98 -20.5q64 0 108.5 41t44.5 101v91h-2q-21 -43 -66.5 -68.5t-96.5 -25.5q-102 0 -159 67.5t-57 185.5
q0 119 56 190.5t158 71.5zM110 260q0 -85 42.5 -144t114.5 -59q74 0 116.5 57.5t42.5 147.5q0 83 -44.5 141.5t-117.5 58.5q-68 0 -111 -57.5t-43 -144.5zM153 717h23q6 -29 31.5 -45.5t64.5 -16.5q40 0 68.5 16.5t35.5 45.5h21q-6 -108 -124 -108q-54 0 -86.5 28.5
t-33.5 79.5z" />
    <glyph glyph-name="Gdotaccent" unicode="&#x120;" horiz-adv-x="722" 
d="M372 737q98 0 173 -52t81 -141h-74q-9 65 -59.5 99t-120.5 34q-81 0 -136.5 -48t-78.5 -117.5t-23 -151.5q0 -147 66.5 -231t204.5 -84q59 0 161 30v233h-181v60h246v-338q-121 -45 -257 -45q-102 0 -174 52.5t-104 135t-32 187.5q0 73 19.5 140t57 120.5t97.5 85
t134 31.5zM340 927h74v-88h-74v88z" />
    <glyph glyph-name="gdotaccent" unicode="&#x121;" 
d="M259 517q99 0 165 -93l2 4l3 74h62q-5 -92 -5 -106v-359q0 -73 -19.5 -119t-63.5 -74q-57 -36 -136 -36q-93 0 -146.5 35.5t-53.5 99.5h65q4 -39 43 -59.5t98 -20.5q64 0 108.5 41t44.5 101v91h-2q-21 -43 -66.5 -68.5t-96.5 -25.5q-102 0 -159 67.5t-57 185.5
q0 119 56 190.5t158 71.5zM110 260q0 -85 42.5 -144t114.5 -59q74 0 116.5 57.5t42.5 147.5q0 83 -44.5 141.5t-117.5 58.5q-68 0 -111 -57.5t-43 -144.5zM231 707h74v-88h-74v88z" />
    <glyph glyph-name="Gcommaaccent" unicode="&#x122;" horiz-adv-x="722" 
d="M372 737q98 0 173 -52t81 -141h-74q-9 65 -59.5 99t-120.5 34q-81 0 -136.5 -48t-78.5 -117.5t-23 -151.5q0 -147 66.5 -231t204.5 -84q59 0 161 30v233h-181v60h246v-338q-121 -45 -257 -45q-102 0 -174 52.5t-104 135t-32 187.5q0 73 19.5 140t57 120.5t97.5 85
t134 31.5zM353 -74h67l-59 -145h-43z" />
    <glyph glyph-name="gcommaaccent" unicode="&#x123;" 
d="M259 517q99 0 165 -93l2 4l3 74h62q-5 -92 -5 -106v-359q0 -73 -19.5 -119t-63.5 -74q-57 -36 -136 -36q-93 0 -146.5 35.5t-53.5 99.5h65q4 -39 43 -59.5t98 -20.5q64 0 108.5 41t44.5 101v91h-2q-21 -43 -66.5 -68.5t-96.5 -25.5q-102 0 -159 67.5t-57 185.5
q0 119 56 190.5t158 71.5zM110 260q0 -85 42.5 -144t114.5 -59q74 0 116.5 57.5t42.5 147.5q0 83 -44.5 141.5t-117.5 58.5q-68 0 -111 -57.5t-43 -144.5zM233 564l59 145h43l-35 -145h-67z" />
    <glyph glyph-name="Hcircumflex" unicode="&#x124;" horiz-adv-x="722" 
d="M99 722h65v-317h394v317h65v-722h-65v345h-394v-345h-65v722zM328 927h73l99 -145h-47l-89 106l-90 -106h-46z" />
    <glyph glyph-name="hcircumflex" unicode="&#x125;" 
d="M80 0v722h60v-296h2q51 91 157 91q86 0 131.5 -53t45.5 -147v-317h-60v325q0 65 -35 101t-97 36q-67 0 -105.5 -48.5t-38.5 -123.5v-290h-60zM133 906h73l99 -145h-47l-89 106l-90 -106h-46z" />
    <glyph glyph-name="Hbar" unicode="&#x126;" horiz-adv-x="722" 
d="M99 722h65v-185h394v185h65v-722h-65v345h-394v-345h-65v722zM164 405h394v90h-394v-90z" />
    <glyph glyph-name="hbar" unicode="&#x127;" 
d="M80 620v102h60v-102h126v-37h-126v-157h2q51 91 157 91q87 0 132 -53.5t45 -146.5v-317h-60v328q0 61 -34.5 97.5t-97.5 36.5q-67 0 -105.5 -48t-38.5 -122v-292h-60v583h-73v37h73z" />
    <glyph glyph-name="Itilde" unicode="&#x128;" horiz-adv-x="278" 
d="M107 725h65v-725h-65v725zM239 915h38q-22 -85 -90 -85q-13 0 -46 11q-30 10 -54 10q-40 0 -47 -29h-38q9 39 32.5 60t57.5 21q20 0 61 -13q26 -8 36 -8q38 0 50 33z" />
    <glyph glyph-name="itilde" unicode="&#x129;" horiz-adv-x="222" 
d="M81 0v502h60v-502h-60zM214 695h38q-22 -85 -90 -85q-13 0 -46 11q-30 10 -54 10q-40 0 -47 -29h-38q9 39 32.5 60t57.5 21q20 0 61 -13q26 -8 36 -8q38 0 50 33z" />
    <glyph glyph-name="Imacron" unicode="&#x12a;" horiz-adv-x="278" 
d="M107 725h65v-725h-65v725zM17 893h245v-50h-245v50z" />
    <glyph glyph-name="imacron" unicode="&#x12b;" horiz-adv-x="222" 
d="M10 673h205v-50h-205v50zM81 0v502h60v-502h-60z" />
    <glyph glyph-name="Ibreve" unicode="&#x12c;" horiz-adv-x="278" 
d="M107 725h65v-725h-65v725zM17 937h23q6 -29 31.5 -45.5t64.5 -16.5q40 0 68.5 16.5t35.5 45.5h21q-6 -108 -124 -108q-54 0 -86.5 28.5t-33.5 79.5z" />
    <glyph glyph-name="ibreve" unicode="&#x12d;" horiz-adv-x="222" 
d="M81 0v502h60v-502h-60zM-12 717h23q6 -29 31.5 -45.5t64.5 -16.5q40 0 68.5 16.5t35.5 45.5h21q-6 -108 -124 -108q-54 0 -86.5 28.5t-33.5 79.5z" />
    <glyph glyph-name="Iogonek" unicode="&#x12e;" horiz-adv-x="278" 
d="M107 725h65v-725h-11q-2 -2 -20 -13.5t-22.5 -15t-17.5 -14t-17 -18t-8.5 -19t-4.5 -23.5q0 -42 51 -42q26 0 60 11v-34q-35 -14 -69 -14q-40 0 -64 19t-24 55q0 66 96 108h-14v725z" />
    <glyph glyph-name="iogonek" unicode="&#x12f;" horiz-adv-x="222" 
d="M76 722h70v-75h-70v75zM81 0v502h60v-502h-6q-52 -32 -71 -54t-19 -49q0 -42 51 -42q24 0 60 11v-34q-40 -14 -69 -14q-41 0 -64.5 19.5t-23.5 54.5q0 66 96 108h-14z" />
    <glyph glyph-name="Idotaccent" unicode="&#x130;" horiz-adv-x="278" 
d="M107 725h65v-725h-65v725zM102 927h74v-88h-74v88z" />
    <glyph glyph-name="dotlessi" unicode="&#x131;" horiz-adv-x="222" 
d="M81 0v502h60v-502h-60z" />
    <glyph glyph-name="Jcircumflex" unicode="&#x134;" horiz-adv-x="500" 
d="M347 722h65v-493q0 -113 -54 -178q-56 -66 -159 -66q-77 0 -125 50t-61 143h70q5 -59 42.5 -96t94.5 -37q64 0 95.5 53t31.5 123v501zM337 927h73l99 -145h-47l-89 106l-90 -106h-46z" />
    <glyph glyph-name="jcircumflex" unicode="&#x135;" horiz-adv-x="222" 
d="M81 -59v561h60v-533q0 -80 -9 -107q-11 -30 -36 -42t-73 -12h-20v55h5q47 0 60 15.5t13 62.5zM76 707h73l99 -145h-47l-89 106l-90 -106h-46z" />
    <glyph glyph-name="Kcommaaccent" unicode="&#x136;" horiz-adv-x="611" 
d="M106 722h64l1 -318l323 318h82l-333 -326l363 -396h-89l-346 377l-1 -377h-64v722zM294 -74h67l-59 -145h-43z" />
    <glyph glyph-name="kcommaaccent" unicode="&#x137;" horiz-adv-x="500" 
d="M86 0v722h60v-425l243 205h77l-254 -217l274 -285h-76l-264 272v-272h-60zM230 -74h67l-59 -145h-43z" />
    <glyph glyph-name="kgreenlandic" unicode="&#x138;" horiz-adv-x="500" 
d="M86 0v502h60v-205l243 205h77l-254 -217l274 -285h-76l-264 272v-272h-60z" />
    <glyph glyph-name="Lacute" unicode="&#x139;" 
d="M100 722h65v-662h363v-60h-428v722zM199 927h80l-127 -143h-44z" />
    <glyph glyph-name="lacute" unicode="&#x13a;" horiz-adv-x="222" 
d="M81 0v722h60v-722h-60zM174 898h80l-127 -143h-44z" />
    <glyph glyph-name="Lcommaaccent" unicode="&#x13b;" 
d="M100 722h65v-662h363v-60h-428v722zM271 -74h67l-59 -145h-43z" />
    <glyph glyph-name="lcommaaccent" unicode="&#x13c;" horiz-adv-x="222" 
d="M81 0v722h60v-722h-60zM84 -74h67l-59 -145h-43z" />
    <glyph glyph-name="Lcaron" unicode="&#x13d;" 
d="M100 722h65v-662h363v-60h-428v722zM350 722h66l-64 -146h-40z" />
    <glyph glyph-name="lcaron" unicode="&#x13e;" horiz-adv-x="222" 
d="M81 0v722h60v-722h-60zM246 722h66l-64 -146h-40z" />
    <glyph glyph-name="Ldot" unicode="&#x13f;" 
d="M100 722h65v-662h363v-60h-428v722zM383 450h74v-88h-74v88z" />
    <glyph glyph-name="ldot" unicode="&#x140;" horiz-adv-x="311" 
d="M81 0v722h60v-722h-60zM227 428h74v-88h-74v88z" />
    <glyph glyph-name="Lslash" unicode="&#x141;" 
d="M100 722h65v-257l94 37v-40l-94 -37v-365h363v-60h-428v399l-94 -37v40l94 37v283z" />
    <glyph glyph-name="lslash" unicode="&#x142;" horiz-adv-x="222" 
d="M81 448v274h60v-250l76 30v-34l-76 -31v-437h-60v413l-76 -30v34z" />
    <glyph glyph-name="Nacute" unicode="&#x143;" horiz-adv-x="722" 
d="M92 722h74l398 -635h2v635h65v-722h-82l-390 624h-2v-624h-65v722zM413 927h80l-127 -143h-44z" />
    <glyph glyph-name="nacute" unicode="&#x144;" 
d="M299 517q87 0 132 -53.5t45 -146.5v-317h-60v328q0 60 -35 97t-97 37q-67 0 -105.5 -48t-38.5 -123v-291h-60v396q0 41 -5 106h62l3 -74l2 -2q51 91 157 91zM332 707h80l-127 -143h-44z" />
    <glyph glyph-name="Ncommaaccent" unicode="&#x145;" horiz-adv-x="722" 
d="M92 722h74l398 -635h2v635h65v-722h-82l-390 624h-2v-624h-65v722zM329 -74h67l-59 -145h-43z" />
    <glyph glyph-name="ncommaaccent" unicode="&#x146;" 
d="M299 517q87 0 132 -53.5t45 -146.5v-317h-60v328q0 60 -35 97t-97 37q-67 0 -105.5 -48t-38.5 -123v-291h-60v396q0 41 -5 106h62l3 -74l2 -2q51 91 157 91zM248 -74h67l-59 -145h-43z" />
    <glyph glyph-name="Ncaron" unicode="&#x147;" horiz-adv-x="722" 
d="M92 722h74l398 -635h2v635h65v-722h-82l-390 624h-2v-624h-65v722zM326 782l-99 145h47l89 -106l90 106h46l-100 -145h-73z" />
    <glyph glyph-name="ncaron" unicode="&#x148;" 
d="M299 517q87 0 132 -53.5t45 -146.5v-317h-60v328q0 60 -35 97t-97 37q-67 0 -105.5 -48t-38.5 -123v-291h-60v396q0 41 -5 106h62l3 -74l2 -2q51 91 157 91zM242 562l-99 145h47l89 -106l90 106h46l-100 -145h-73z" />
    <glyph glyph-name="Eng" unicode="&#x14a;" horiz-adv-x="722" 
d="M92 722h74l398 -620h2v620h65v-753q0 -57 -6 -85t-23 -46q-29 -30 -116 -30h-27v55h21q39 0 54 8q18 9 25 30.5t7 90.5l-407 632h-2v-624h-65v722z" />
    <glyph glyph-name="eng" unicode="&#x14b;" horiz-adv-x="552" 
d="M476 315v-356q0 -46 -4 -71t-19 -45.5t-43.5 -27.5t-77.5 -7h-24v55q75 0 91.5 19t16.5 104v342q0 60 -34.5 97t-97.5 37q-67 0 -105.5 -48t-38.5 -126v-288h-60v396q0 28 -5 106h62q3 -54 3 -74l2 -2q51 91 157 91q87 0 132 -53.5t45 -148.5z" />
    <glyph glyph-name="Omacron" unicode="&#x14c;" horiz-adv-x="778" 
d="M389 737q157 0 239.5 -105t82.5 -271q0 -167 -82.5 -271.5t-239.5 -104.5t-239.5 105t-82.5 271q0 108 34 191.5t108 134t180 50.5zM137 361q0 -86 25.5 -155.5t84 -115t142.5 -45.5t142.5 45.5t84 115t25.5 155.5t-25.5 155.5t-84 115t-143.5 45.5q-83 0 -141.5 -45.5
t-84 -115t-25.5 -155.5zM267 893h245v-50h-245v50z" />
    <glyph glyph-name="omacron" unicode="&#x14d;" 
d="M278 517q108 0 171 -76t63 -190t-63 -190t-171 -76t-171 75.5t-63 190.5q0 114 63 190t171 76zM109 251q0 -88 45.5 -149.5t123.5 -61.5q77 0 123 61t46 150q0 87 -45 149t-125 62q-77 0 -122.5 -61.5t-45.5 -149.5zM157 707h245v-60h-245v60z" />
    <glyph glyph-name="Obreve" unicode="&#x14e;" horiz-adv-x="778" 
d="M389 737q157 0 239.5 -105t82.5 -271q0 -167 -82.5 -271.5t-239.5 -104.5t-239.5 105t-82.5 271q0 108 34 191.5t108 134t180 50.5zM137 361q0 -86 25.5 -155.5t84 -115t142.5 -45.5t142.5 45.5t84 115t25.5 155.5t-25.5 155.5t-84 115t-143.5 45.5q-83 0 -141.5 -45.5
t-84 -115t-25.5 -155.5zM267 937h23q6 -29 31.5 -45.5t64.5 -16.5q40 0 68.5 16.5t35.5 45.5h21q-6 -108 -124 -108q-54 0 -86.5 28.5t-33.5 79.5z" />
    <glyph glyph-name="obreve" unicode="&#x14f;" 
d="M278 517q108 0 171 -76t63 -190t-63 -190t-171 -76t-171 75.5t-63 190.5q0 114 63 190t171 76zM109 251q0 -88 45.5 -149.5t123.5 -61.5q77 0 123 61t46 150q0 87 -45 149t-125 62q-77 0 -122.5 -61.5t-45.5 -149.5zM157 717h23q6 -29 31.5 -45.5t64.5 -16.5
q40 0 68.5 16.5t35.5 45.5h21q-6 -108 -124 -108q-54 0 -86.5 28.5t-33.5 79.5z" />
    <glyph glyph-name="Ohungarumlaut" unicode="&#x150;" horiz-adv-x="778" 
d="M389 737q157 0 239.5 -105t82.5 -271q0 -167 -82.5 -271.5t-239.5 -104.5t-239.5 105t-82.5 271q0 108 34 191.5t108 134t180 50.5zM137 361q0 -86 25.5 -155.5t84 -115t142.5 -45.5t142.5 45.5t84 115t25.5 155.5t-25.5 155.5t-84 115t-143.5 45.5q-83 0 -141.5 -45.5
t-84 -115t-25.5 -155.5zM392 927h81l-129 -141h-47zM523 927h81l-129 -141h-47z" />
    <glyph glyph-name="ohungarumlaut" unicode="&#x151;" 
d="M278 517q108 0 171 -76t63 -190t-63 -190t-171 -76t-171 75.5t-63 190.5q0 114 63 190t171 76zM109 251q0 -88 45.5 -149.5t123.5 -61.5q77 0 123 61t46 150q0 87 -45 149t-125 62q-77 0 -122.5 -61.5t-45.5 -149.5zM272 707h81l-129 -141h-47zM403 707h81l-129 -141h-47
z" />
    <glyph glyph-name="OE" unicode="&#x152;" horiz-adv-x="1000" 
d="M363 737q116 0 192 -78v63h376v-60h-311v-259h297v-60h-297v-283h326v-60h-391v69h-4q-29 -39 -81 -61.5t-108 -22.5q-138 0 -219.5 103t-81.5 273q0 171 82 273.5t220 102.5zM131 361q0 -137 62 -226.5t166 -89.5q84 0 139 44.5t55 130.5v264q0 124 -76 168
q-44 25 -117 25q-103 0 -166 -89t-63 -227z" />
    <glyph glyph-name="oe" unicode="&#x153;" horiz-adv-x="889" 
d="M456 392q18 57 64.5 91t101.5 34q104 0 160.5 -71t57.5 -209h-350v-9q0 -86 35 -137t98 -51q54 0 95 33t53 87h63q-46 -175 -207 -175q-63 0 -109 34t-61 91h-2q-21 -58 -68.5 -91.5t-109.5 -33.5q-106 0 -169.5 75.5t-63.5 190.5q0 114 63 190t170 76q60 0 106.5 -32
t72.5 -93zM269 40q77 0 116.5 57t39.5 158q0 94 -40.5 150.5t-115.5 56.5q-73 0 -116.5 -62t-43.5 -149t43.5 -149t116.5 -62zM490 292h285q0 83 -38 126.5t-109 43.5q-58 0 -98 -47.5t-40 -113.5v-9z" />
    <glyph glyph-name="Racute" unicode="&#x154;" horiz-adv-x="667" 
d="M103 722h251q103 0 166 -45t63 -143q0 -57 -36.5 -98.5t-102.5 -57.5v-2q55 -9 83 -43q30 -36 37 -108q2 -16 10 -109q7 -86 29 -116h-75q-17 44 -24 133q-1 27 -9 92q-8 67 -35 93q-26 26 -106 26h-186v-344h-65v722zM168 404h152q92 0 142.5 28t50.5 101
q0 129 -157 129h-188v-258zM366 927h80l-127 -143h-44z" />
    <glyph glyph-name="racute" unicode="&#x155;" horiz-adv-x="333" 
d="M274 518q5 0 41 -2v-58q-2 0 -16 2t-22 2q-65 0 -101 -45t-36 -117v-300h-60v407q0 12 -5 95h62l3 -74h2q24 66 87 85q16 5 45 5zM210 707h80l-127 -143h-44z" />
    <glyph glyph-name="Rcommaaccent" unicode="&#x156;" horiz-adv-x="667" 
d="M103 722h251q103 0 166 -45t63 -143q0 -57 -36.5 -98.5t-102.5 -57.5v-2q55 -9 83 -43q30 -36 37 -108q2 -16 10 -109q7 -86 29 -116h-75q-17 44 -24 133q-1 27 -9 92q-8 67 -35 93q-26 26 -106 26h-186v-344h-65v722zM168 404h152q92 0 142.5 28t50.5 101
q0 129 -157 129h-188v-258zM301 -74h67l-59 -145h-43z" />
    <glyph glyph-name="rcommaaccent" unicode="&#x157;" horiz-adv-x="333" 
d="M274 518q5 0 41 -2v-58q-2 0 -16 2t-22 2q-65 0 -101 -45t-36 -117v-300h-60v407q0 12 -5 95h62l3 -74h2q24 66 87 85q16 5 45 5zM84 -74h67l-59 -145h-43z" />
    <glyph glyph-name="Rcaron" unicode="&#x158;" horiz-adv-x="667" 
d="M103 722h251q103 0 166 -45t63 -143q0 -57 -36.5 -98.5t-102.5 -57.5v-2q55 -9 83 -43q30 -36 37 -108q2 -16 10 -109q7 -86 29 -116h-75q-17 44 -24 133q-1 27 -9 92q-8 67 -35 93q-26 26 -106 26h-186v-344h-65v722zM168 404h152q92 0 142.5 28t50.5 101
q0 129 -157 129h-188v-258zM292 782l-99 145h47l89 -106l90 106h46l-100 -145h-73z" />
    <glyph glyph-name="rcaron" unicode="&#x159;" horiz-adv-x="333" 
d="M274 518q5 0 41 -2v-58q-2 0 -16 2t-22 2q-65 0 -101 -45t-36 -117v-300h-60v407q0 12 -5 95h62l3 -74h2q24 66 87 85q16 5 45 5zM120 562l-99 145h47l89 -106l90 106h46l-100 -145h-73z" />
    <glyph glyph-name="Sacute" unicode="&#x15a;" horiz-adv-x="611" 
d="M306 737q95 0 160 -42.5t74 -129.5h-70q-1 54 -41.5 83t-115.5 29q-65 0 -116.5 -33t-51.5 -93q0 -54 37 -88q38 -35 124 -62l67 -22q84 -28 132 -70t48 -119q0 -115 -98 -168q-33 -18 -83.5 -27.5t-82.5 -9.5q-61 0 -100 16q-60 24 -95.5 76t-35.5 111h70
q0 -143 181 -143q68 0 121 37.5t53 101.5q0 67 -63 104q-13 8 -30 14.5t-47.5 16t-46.5 15.5q-42 12 -85 32q-67 30 -101.5 72t-34.5 104q0 89 69 142t162 53zM367 927h80l-127 -143h-44z" />
    <glyph glyph-name="sacute" unicode="&#x15b;" horiz-adv-x="500" 
d="M247 517q86 0 132 -36t51 -103h-65q-8 84 -123 84q-52 0 -83 -21.5t-31 -59.5q0 -29 19 -44q23 -19 96 -37q8 -2 29.5 -7.5t29 -7.5t24 -6.5t24 -7.5t18.5 -8t19 -9.5t15 -10.5q44 -35 44 -94q0 -76 -59 -120t-152 -44q-84 0 -136.5 42t-52.5 110h65q3 -47 39 -72
t100 -25q57 0 94 27t37 73q0 68 -111 91q-44 9 -70 16t-55.5 18.5t-45 25.5t-26 36t-10.5 50q0 66 50.5 103t133.5 37zM287 707h80l-127 -143h-44z" />
    <glyph glyph-name="Scircumflex" unicode="&#x15c;" horiz-adv-x="611" 
d="M306 737q95 0 160 -42.5t74 -129.5h-70q-1 54 -41.5 83t-115.5 29q-65 0 -116.5 -33t-51.5 -93q0 -54 37 -88q38 -35 124 -62l67 -22q84 -28 132 -70t48 -119q0 -115 -98 -168q-33 -18 -83.5 -27.5t-82.5 -9.5q-61 0 -100 16q-60 24 -95.5 76t-35.5 111h70
q0 -143 181 -143q68 0 121 37.5t53 101.5q0 67 -63 104q-13 8 -30 14.5t-47.5 16t-46.5 15.5q-42 12 -85 32q-67 30 -101.5 72t-34.5 104q0 89 69 142t162 53zM275 927h73l99 -145h-47l-89 106l-90 -106h-46z" />
    <glyph glyph-name="scircumflex" unicode="&#x15d;" horiz-adv-x="500" 
d="M247 517q86 0 132 -36t51 -103h-65q-8 84 -123 84q-52 0 -83 -21.5t-31 -59.5q0 -29 19 -44q23 -19 96 -37q8 -2 29.5 -7.5t29 -7.5t24 -6.5t24 -7.5t18.5 -8t19 -9.5t15 -10.5q44 -35 44 -94q0 -76 -59 -120t-152 -44q-84 0 -136.5 42t-52.5 110h65q3 -47 39 -72
t100 -25q57 0 94 27t37 73q0 68 -111 91q-44 9 -70 16t-55.5 18.5t-45 25.5t-26 36t-10.5 50q0 66 50.5 103t133.5 37zM211 707h73l99 -145h-47l-89 106l-90 -106h-46z" />
    <glyph glyph-name="Scedilla" unicode="&#x15e;" horiz-adv-x="611" 
d="M306 737q64 0 113 -15t84 -55t37 -102h-70q-1 54 -41.5 83t-115.5 29q-65 0 -116.5 -32.5t-51.5 -93.5q0 -49 36 -88q25 -27 131 -62l66 -22q40 -13 67.5 -27t54 -35.5t40 -53.5t13.5 -73q0 -112 -98 -167q-58 -32 -140 -37l-10 -36q101 0 101 -62q0 -33 -32.5 -52
t-81.5 -19q-47 0 -84 11l7 28q41 -12 75 -12q60 0 60 41q0 36 -57 36q-16 0 -24 -2l21 66q-54 0 -97 16q-72 27 -102.5 74t-32.5 113h70q0 -143 181 -143q69 0 121.5 36t52.5 103q0 68 -60 104q-27 16 -124 48q-71 23 -90 32q-68 31 -101 70t-33 104q0 89 69 142t162 53z
" />
    <glyph glyph-name="scedilla" unicode="&#x15f;" horiz-adv-x="500" 
d="M247 517q174 0 183 -139h-65q-8 84 -123 84q-52 0 -83 -21.5t-31 -59.5q0 -30 24.5 -48t94.5 -34q87 -21 132 -41q29 -13 48 -43t19 -66q0 -74 -54 -115.5t-133 -47.5l-10 -36q101 0 101 -62q0 -33 -32 -52t-82 -19q-47 0 -84 11l7 28q41 -12 75 -12q60 0 60 41
q0 36 -49 36q-19 0 -32 -2l21 66q-84 0 -136 42t-52 110h65q3 -47 39 -72t100 -25q57 0 94 27t37 73q0 36 -27.5 57.5t-83.5 33.5q-44 9 -70 16t-55.5 18.5t-45 25.5t-26 36t-10.5 50q0 67 51 103.5t133 36.5z" />
    <glyph glyph-name="Scaron" unicode="&#x160;" horiz-adv-x="611" 
d="M306 737q95 0 160 -42.5t74 -129.5h-70q-1 54 -41.5 83t-115.5 29q-65 0 -116.5 -33t-51.5 -93q0 -54 37 -88q38 -35 124 -62l67 -22q84 -28 132 -70t48 -119q0 -115 -98 -168q-33 -18 -83.5 -27.5t-82.5 -9.5q-61 0 -100 16q-60 24 -95.5 76t-35.5 111h70
q0 -143 181 -143q68 0 121 37.5t53 101.5q0 67 -63 104q-13 8 -30 14.5t-47.5 16t-46.5 15.5q-42 12 -85 32q-67 30 -101.5 72t-34.5 104q0 89 69 142t162 53zM269 782l-99 145h47l89 -106l90 106h46l-100 -145h-73z" />
    <glyph glyph-name="scaron" unicode="&#x161;" horiz-adv-x="500" 
d="M247 517q86 0 132 -36t51 -103h-65q-8 84 -123 84q-52 0 -83 -21.5t-31 -59.5q0 -29 19 -44q23 -19 96 -37q8 -2 29.5 -7.5t29 -7.5t24 -6.5t24 -7.5t18.5 -8t19 -9.5t15 -10.5q44 -35 44 -94q0 -76 -59 -120t-152 -44q-84 0 -136.5 42t-52.5 110h65q3 -47 39 -72
t100 -25q57 0 94 27t37 73q0 68 -111 91q-44 9 -70 16t-55.5 18.5t-45 25.5t-26 36t-10.5 50q0 66 50.5 103t133.5 37zM213 562l-99 145h47l89 -106l90 106h46l-100 -145h-73z" />
    <glyph glyph-name="Tcommaaccent" unicode="&#x162;" 
d="M14 722h528v-60h-229l-1 -662h-64l-1 662h-233v60zM249 -74h67l-59 -145h-43z" />
    <glyph glyph-name="tcommaaccent" unicode="&#x163;" horiz-adv-x="333" 
d="M183 635v-133h114v-55h-114v-341q0 -66 70 -66q30 0 51 6v-52q-34 -9 -61 -9q-63 0 -91.5 27t-28.5 91v344h-100v55h100v107zM150 -74h67l-59 -145h-43z" />
    <glyph glyph-name="Tcaron" unicode="&#x164;" 
d="M14 722h528v-60h-229l-1 -662h-64l-1 662h-233v60zM241 782l-99 145h47l89 -106l90 106h46l-100 -145h-73z" />
    <glyph glyph-name="tcaron" unicode="&#x165;" horiz-adv-x="333" 
d="M183 635v-133h114v-55h-114v-341q0 -66 70 -66q30 0 51 6v-52q-34 -9 -61 -9q-63 0 -91.5 27t-28.5 91v344h-100v55h100v107zM311 722h66l-64 -146h-40z" />
    <glyph glyph-name="Tbar" unicode="&#x166;" 
d="M14 722h528v-60h-230v-192h126v-40h-126v-430h-65v430h-125v40h125v192h-233v60z" />
    <glyph glyph-name="tbar" unicode="&#x167;" horiz-adv-x="333" 
d="M183 635v-133h114v-55h-114v-127h98v-37h-98v-174q0 -69 70 -69q32 0 51 6v-52q-34 -9 -61 -9q-64 0 -92 27t-28 89v182h-71v37h71v127h-100v55h100v107z" />
    <glyph glyph-name="Utilde" unicode="&#x168;" horiz-adv-x="722" 
d="M97 722h65v-459q0 -96 52.5 -157t146.5 -61q95 0 147 61t52 160v456h65v-460q0 -128 -69 -202.5t-195 -74.5t-195 74t-69 201v462zM479 915h38q-22 -85 -90 -85q-13 0 -46 11q-30 10 -54 10q-40 0 -47 -29h-38q9 39 32.5 60t57.5 21q20 0 61 -13q26 -8 36 -8q38 0 50 33z
" />
    <glyph glyph-name="utilde" unicode="&#x169;" 
d="M80 185v317h60v-327q0 -61 34.5 -98t97.5 -37q69 0 106.5 49t37.5 120v293h60v-396q0 -19 1 -31l4 -75h-62l-3 74l-2 2q-51 -91 -157 -91q-87 0 -132 53.5t-45 146.5zM382 695h38q-22 -85 -90 -85q-13 0 -46 11q-30 10 -54 10q-40 0 -47 -29h-38q9 39 32.5 60t57.5 21
q20 0 61 -13q26 -8 36 -8q38 0 50 33z" />
    <glyph glyph-name="Umacron" unicode="&#x16a;" horiz-adv-x="722" 
d="M97 722h65v-459q0 -96 52.5 -157t146.5 -61q95 0 147 61t52 160v456h65v-460q0 -128 -69 -202.5t-195 -74.5t-195 74t-69 201v462zM241 893h245v-50h-245v50z" />
    <glyph glyph-name="umacron" unicode="&#x16b;" 
d="M80 185v317h60v-327q0 -61 34.5 -98t97.5 -37q69 0 106.5 49t37.5 120v293h60v-396q0 -19 1 -31l4 -75h-62l-3 74l-2 2q-51 -91 -157 -91q-87 0 -132 53.5t-45 146.5zM157 707h245v-60h-245v60z" />
    <glyph glyph-name="Ubreve" unicode="&#x16c;" horiz-adv-x="722" 
d="M97 722h65v-459q0 -96 52.5 -157t146.5 -61q95 0 147 61t52 160v456h65v-460q0 -128 -69 -202.5t-195 -74.5t-195 74t-69 201v462zM242 937h23q6 -29 31.5 -45.5t64.5 -16.5q40 0 68.5 16.5t35.5 45.5h21q-6 -108 -124 -108q-54 0 -86.5 28.5t-33.5 79.5z" />
    <glyph glyph-name="ubreve" unicode="&#x16d;" 
d="M80 185v317h60v-327q0 -61 34.5 -98t97.5 -37q69 0 106.5 49t37.5 120v293h60v-396q0 -19 1 -31l4 -75h-62l-3 74l-2 2q-51 -91 -157 -91q-87 0 -132 53.5t-45 146.5zM159 717h23q6 -29 31.5 -45.5t64.5 -16.5q40 0 68.5 16.5t35.5 45.5h21q-6 -108 -124 -108
q-54 0 -86.5 28.5t-33.5 79.5z" />
    <glyph glyph-name="Uring" unicode="&#x16e;" horiz-adv-x="722" 
d="M97 722h65v-459q0 -96 52.5 -157t146.5 -61q95 0 147 61t52 160v456h65v-460q0 -128 -69 -202.5t-195 -74.5t-195 74t-69 201v462zM366 962q39 0 66 -27.5t27 -65.5q0 -37 -27 -64.5t-66 -27.5q-38 0 -65 27t-27 65t27 65.5t65 27.5zM310 869q0 -22 16 -39t40 -17t40 17
t16 39t-16.5 39t-39.5 17t-39.5 -16t-16.5 -40z" />
    <glyph glyph-name="uring" unicode="&#x16f;" 
d="M80 185v317h60v-327q0 -61 34.5 -98t97.5 -37q69 0 106.5 49t37.5 120v293h60v-396q0 -19 1 -31l4 -75h-62l-3 74l-2 2q-51 -91 -157 -91q-87 0 -132 53.5t-45 146.5zM277 743q39 0 66 -27.5t27 -65.5q0 -37 -27 -64.5t-66 -27.5q-38 0 -65 27t-27 65t27 65.5t65 27.5z
M221 650q0 -22 15.5 -39t40.5 -17q24 0 40 17t16 39t-16.5 39t-39.5 17t-39.5 -16t-16.5 -40z" />
    <glyph glyph-name="Uhungarumlaut" unicode="&#x170;" horiz-adv-x="722" 
d="M97 722h65v-459q0 -96 52.5 -157t146.5 -61q95 0 147 61t52 160v456h65v-460q0 -128 -69 -202.5t-195 -74.5t-195 74t-69 201v462zM354 927h81l-129 -141h-47zM485 927h81l-129 -141h-47z" />
    <glyph glyph-name="uhungarumlaut" unicode="&#x171;" 
d="M80 185v317h60v-327q0 -61 34.5 -98t97.5 -37q69 0 106.5 49t37.5 120v293h60v-396q0 -19 1 -31l4 -75h-62l-3 74l-2 2q-51 -91 -157 -91q-87 0 -132 53.5t-45 146.5zM279 707h81l-129 -141h-47zM410 707h81l-129 -141h-47z" />
    <glyph glyph-name="Uogonek" unicode="&#x172;" horiz-adv-x="722" 
d="M97 722h65v-458q0 -98 51.5 -158.5t147.5 -60.5t147.5 60.5t51.5 158.5v458h65v-460q0 -117 -60 -191t-172 -84q-39 -25 -54 -44.5t-15 -45.5q0 -42 51 -42q26 0 60 11v-34q-38 -14 -68 -14q-41 0 -65 19.5t-24 54.5q0 57 66 94q-115 5 -181 77.5t-66 198.5v460z" />
    <glyph glyph-name="uogonek" unicode="&#x173;" 
d="M80 185v317h60v-327q0 -63 34.5 -99t97.5 -36q68 0 106 48.5t38 120.5v293h60v-398q0 -39 5 -104h-3q-53 -32 -71.5 -54t-18.5 -49q0 -42 50 -42q27 0 61 11v-34q-40 -14 -68 -14q-41 0 -65 19.5t-24 54.5q0 66 96 108h-19l-3 74l-2 2q-51 -91 -157 -91q-87 0 -132 53
t-45 147z" />
    <glyph glyph-name="Wcircumflex" unicode="&#x174;" horiz-adv-x="1000" 
d="M10 722h69l168 -657h2l211 657h79l220 -657h2l167 657h63l-190 -722h-89l-213 655h-2l-207 -655h-92zM464 927h73l99 -145h-47l-89 106l-90 -106h-46z" />
    <glyph glyph-name="wcircumflex" unicode="&#x175;" horiz-adv-x="833" 
d="M16 502h66l150 -423h2l152 423h71l148 -419h2l145 419h66l-187 -502h-57l-154 433h-2l-157 -433h-61zM383 707h73l99 -145h-47l-89 106l-90 -106h-46z" />
    <glyph glyph-name="Ycircumflex" unicode="&#x176;" horiz-adv-x="611" 
d="M8 722h83l221 -349l221 349h70l-264 -408v-314h-65v312zM274 927h73l99 -145h-47l-89 106l-90 -106h-46z" />
    <glyph glyph-name="ycircumflex" unicode="&#x177;" horiz-adv-x="500" 
d="M8 502h73l169 -420l168 420h65l-277 -694h-66l76 192zM224 707h73l99 -145h-47l-89 106l-90 -106h-46z" />
    <glyph glyph-name="Ydieresis" unicode="&#x178;" horiz-adv-x="611" 
d="M8 722h83l221 -349l221 349h70l-264 -408v-314h-65v312zM182 912h74v-88h-74v88zM356 912h74v-88h-74v88z" />
    <glyph glyph-name="Zacute" unicode="&#x179;" 
d="M39 722h478v-60l-402 -602h402v-60h-478v60l401 602h-401v60zM332 927h80l-127 -143h-44z" />
    <glyph glyph-name="zacute" unicode="&#x17a;" horiz-adv-x="444" 
d="M40 502h364v-55l-291 -392h291v-55h-364v55l293 392h-293v55zM275 707h80l-127 -143h-44z" />
    <glyph glyph-name="Zdotaccent" unicode="&#x17b;" 
d="M39 722h478v-60l-402 -602h402v-60h-478v60l401 602h-401v60zM241 927h74v-88h-74v88z" />
    <glyph glyph-name="zdotaccent" unicode="&#x17c;" horiz-adv-x="444" 
d="M40 502h364v-55l-291 -392h291v-55h-364v55l293 392h-293v55zM188 707h74v-88h-74v88z" />
    <glyph glyph-name="Zcaron" unicode="&#x17d;" 
d="M39 722h478v-60l-402 -602h402v-60h-478v60l401 602h-401v60zM241 782l-99 145h47l89 -106l90 106h46l-100 -145h-73z" />
    <glyph glyph-name="zcaron" unicode="&#x17e;" horiz-adv-x="444" 
d="M40 502h364v-55l-291 -392h291v-55h-364v55l293 392h-293v55zM185 562l-99 145h47l89 -106l90 106h46l-100 -145h-73z" />
    <glyph glyph-name="florin" unicode="&#x192;" 
d="M390 707q35 0 73 -7l-8 -57q-20 4 -43 4q-67 0 -79 -58l-25 -121h106l-8 -60h-107l-83 -434q-17 -91 -49 -128.5t-89 -37.5q-24 0 -46 6l11 54l28 -4q21 0 35 10.5t24 36.5t14 43.5t12 58.5l77 395h-94l9 60h94l19 98q14 73 45.5 107t83.5 34z" />
    <glyph glyph-name="Aringacute" unicode="&#x1fa;" horiz-adv-x="667" 
d="M402 1011l79 -8l-141 -129l-44 5zM333 857q39 0 66 -28t27 -65q0 -46 -40 -75l273 -689h-71l-77 195h-359l-76 -195h-67l271 688q-39 28 -39 76q0 38 27.5 65.5t64.5 27.5zM277 764q0 -23 16.5 -39.5t39.5 -16.5t39.5 16.5t16.5 39.5q0 22 -16.5 39t-39.5 17t-39.5 -16.5
t-16.5 -39.5zM332 662l-159 -407h315z" />
    <glyph glyph-name="aringacute" unicode="&#x1fb;" horiz-adv-x="500" 
d="M246 517q88 0 133 -42t45 -119v-273q0 -18 5 -83h-62l-2 74h-2q-13 -35 -61.5 -62t-98.5 -27q-74 0 -120.5 42.5t-46.5 112.5q0 65 45 108.5t112 52.5q31 4 117 6l54 1v33q0 62 -28 91.5t-91 29.5q-114 0 -123 -87h-64q10 70 58.5 106t129.5 36zM101 140q0 -47 31 -73.5
t82 -26.5q145 0 151 172q0 6 -0.5 19.5t-0.5 21.5l-60 -1q-108 -1 -155.5 -28t-47.5 -84zM249 743q39 0 66 -27.5t27 -65.5q0 -37 -27 -64.5t-66 -27.5q-38 0 -65 27t-27 65t27 65.5t65 27.5zM193 650q0 -22 15.5 -39t40.5 -17q24 0 40 17t16 39t-16.5 39t-39.5 17
t-39.5 -16t-16.5 -40zM315 917h80l-127 -143h-44z" />
    <glyph glyph-name="AEacute" unicode="&#x1fc;" horiz-adv-x="1000" 
d="M426 722h499v-60h-389l43 -259h328v-60h-319l47 -283h299v-60h-356l-34 196h-350l-114 -196h-72zM465 662l-237 -406h308l-69 406h-2zM635 924h80l-127 -143h-44z" />
    <glyph glyph-name="aeacute" unicode="&#x1fd;" horiz-adv-x="833" 
d="M246 517q56 0 101 -29t56 -76h2q21 48 63 76.5t92 28.5q103 0 160 -70t58 -203h-350v-10q0 -92 36 -143t100 -51q51 0 92 33.5t53 86.5h63q-20 -85 -75 -130t-126 -45q-51 0 -101.5 31.5t-71.5 87.5q-21 -56 -73 -87.5t-122 -31.5q-77 0 -122 41.5t-45 113.5
q0 52 33.5 90.5t93.5 55.5q44 13 144 13h56v55q-5 57 -32.5 82.5t-85.5 25.5q-114 0 -123 -87h-64q21 142 188 142zM428 307v-8h285q0 78 -38 120.5t-109 42.5q-57 0 -97.5 -46.5t-40.5 -108.5zM101 134q0 -44 29 -69t86 -25q147 0 147 182v22h-103q-86 0 -122.5 -26.5
t-36.5 -83.5zM482 707h80l-127 -143h-44z" />
    <glyph glyph-name="Oslashacute" unicode="&#x1fe;" horiz-adv-x="778" 
d="M617 645l82 92l27 -25l-85 -97q70 -99 70 -254q0 -173 -85.5 -274.5t-236.5 -101.5q-140 0 -226 91l-80 -91l-29 27l84 94q-71 95 -71 255q0 173 85.5 274.5t236.5 101.5q142 0 228 -92zM186 160l385 433q-66 84 -183 84t-184 -87t-67 -229q0 -123 49 -201zM593 561
l-384 -434q67 -82 180 -82q121 0 186.5 89t65.5 227q0 116 -48 200zM426 927h80l-127 -143h-44z" />
    <glyph glyph-name="oslashacute" unicode="&#x1ff;" 
d="M278 517q97 0 159 -64l59 64l24 -25l-60 -66q52 -74 52 -175q0 -114 -63.5 -190t-170.5 -76q-98 0 -161 65l-60 -65l-24 25l62 68q-51 71 -51 173q0 114 63 190t171 76zM109 251q0 -69 31 -124l255 280q-47 55 -118 55q-77 0 -122.5 -61.5t-45.5 -149.5zM415 377
l-256 -280q45 -57 119 -57q77 0 123 60.5t46 150.5q0 69 -32 126zM318 707h80l-127 -143h-44z" />
    <glyph glyph-name="Scommaaccent" unicode="&#x218;" horiz-adv-x="611" 
d="M306 737q95 0 160 -42.5t74 -129.5h-70q-1 54 -41.5 83t-115.5 29q-65 0 -116.5 -33t-51.5 -93q0 -54 37 -88q38 -35 124 -62l67 -22q84 -28 132 -70t48 -119q0 -115 -98 -168q-33 -18 -83.5 -27.5t-82.5 -9.5q-61 0 -100 16q-60 24 -95.5 76t-35.5 111h70
q0 -143 181 -143q68 0 121 37.5t53 101.5q0 67 -63 104q-13 8 -30 14.5t-47.5 16t-46.5 15.5q-42 12 -85 32q-67 30 -101.5 72t-34.5 104q0 89 69 142t162 53zM278 -74h67l-59 -145h-43z" />
    <glyph glyph-name="scommaaccent" unicode="&#x219;" horiz-adv-x="500" 
d="M247 517q86 0 132 -36t51 -103h-65q-8 84 -123 84q-52 0 -83 -21.5t-31 -59.5q0 -29 19 -44q23 -19 96 -37q8 -2 29.5 -7.5t29 -7.5t24 -6.5t24 -7.5t18.5 -8t19 -9.5t15 -10.5q44 -35 44 -94q0 -76 -59 -120t-152 -44q-84 0 -136.5 42t-52.5 110h65q3 -47 39 -72
t100 -25q57 0 94 27t37 73q0 68 -111 91q-44 9 -70 16t-55.5 18.5t-45 25.5t-26 36t-10.5 50q0 66 50.5 103t133.5 37zM226 -74h67l-59 -145h-43z" />
    <glyph glyph-name="uni021A" unicode="&#x21a;" 
d="M14 722h528v-60h-229l-1 -662h-64l-1 662h-233v60zM249 -74h67l-59 -145h-43z" />
    <glyph glyph-name="uni021B" unicode="&#x21b;" horiz-adv-x="333" 
d="M183 635v-133h114v-55h-114v-341q0 -66 70 -66q30 0 51 6v-52q-34 -9 -61 -9q-63 0 -91.5 27t-28.5 91v344h-100v55h100v107zM150 -74h67l-59 -145h-43z" />
    <glyph glyph-name="dotlessj" unicode="&#x237;" horiz-adv-x="222" 
d="M81 -59v561h60v-533q0 -80 -9 -107q-11 -30 -36 -42t-73 -12h-20v55h5q47 0 60 15.5t13 62.5z" />
    <glyph glyph-name="circumflex" unicode="&#x2c6;" horiz-adv-x="278" 
d="M103 707h73l99 -145h-47l-89 106l-90 -106h-46z" />
    <glyph glyph-name="caron" unicode="&#x2c7;" horiz-adv-x="278" 
d="M102 562l-99 145h47l89 -106l90 106h46l-100 -145h-73z" />
    <glyph glyph-name="uni02C9" unicode="&#x2c9;" horiz-adv-x="278" 
d="M17 673h245v-50h-245v50z" />
    <glyph glyph-name="breve" unicode="&#x2d8;" horiz-adv-x="278" 
d="M17 717h23q6 -29 31.5 -45.5t64.5 -16.5q40 0 68.5 16.5t35.5 45.5h21q-6 -108 -124 -108q-54 0 -86.5 28.5t-33.5 79.5z" />
    <glyph glyph-name="dotaccent" unicode="&#x2d9;" horiz-adv-x="278" 
d="M102 707h74v-88h-74v88z" />
    <glyph glyph-name="ring" unicode="&#x2da;" horiz-adv-x="278" 
d="M138 743q39 0 66 -27.5t27 -65.5q0 -37 -27 -64.5t-66 -27.5q-38 0 -65 27t-27 65t27 65.5t65 27.5zM82 650q0 -22 16 -39t40 -17t40 17t16 39t-16.5 39t-39.5 17t-39.5 -16t-16.5 -40z" />
    <glyph glyph-name="ogonek" unicode="&#x2db;" horiz-adv-x="278" 
d="M131 0h40q-51 -31 -71 -54q-19 -22 -19 -49q0 -42 50 -42q27 0 61 11v-34q-40 -14 -68 -14q-41 0 -65 19.5t-24 54.5q0 66 96 108z" />
    <glyph glyph-name="tilde" unicode="&#x2dc;" horiz-adv-x="278" 
d="M239 695h38q-22 -85 -90 -85q-13 0 -46 11q-30 10 -54 10q-40 0 -47 -29h-38q9 39 32.5 60t57.5 21q20 0 61 -13q26 -8 36 -8q38 0 50 33z" />
    <glyph glyph-name="hungarumlaut" unicode="&#x2dd;" 
d="M220 707h81l-129 -141h-47zM351 707h81l-129 -141h-47z" />
    <glyph glyph-name="uni0394" unicode="&#x394;" horiz-adv-x="670" 
d="M296 712h74l287 -712h-642zM332 645l-226 -583h455z" />
    <glyph glyph-name="uni03A9" unicode="&#x3a9;" horiz-adv-x="744" 
d="M367 721q135 0 226.5 -88.5t91.5 -215.5q0 -100 -52.5 -176.5t-144.5 -100.5v-82h197v-58h-251v181q86 14 135 77t49 157q0 105 -71.5 175t-180.5 70q-108 0 -180 -70.5t-72 -174.5q0 -92 48 -155.5t136 -78.5v-181h-251v58h197v82q-91 26 -144 101.5t-53 174.5
q0 132 94.5 218.5t225.5 86.5z" />
    <glyph glyph-name="uni03BC" unicode="&#x3bc;" 
d="M80 -192v694h60v-327q0 -62 34.5 -98.5t97.5 -36.5q67 0 105.5 48.5t38.5 124.5v289h60v-396q0 -19 1 -31l4 -75h-62l-3 74l-2 2q-51 -91 -157 -91q-50 0 -117 25v-202h-60z" />
    <glyph glyph-name="pi" unicode="&#x3c0;" horiz-adv-x="563" 
d="M32 502h494v-55h-76v-346q0 -28 8.5 -39.5t29.5 -11.5q19 0 42 10v-49q-37 -17 -64 -17q-41 0 -57 20q-19 24 -19 84v349h-224v-447h-60v447h-74v55z" />
    <glyph glyph-name="Wgrave" unicode="&#x1e80;" horiz-adv-x="1000" 
d="M10 722h69l168 -657h2l211 657h79l220 -657h2l167 657h63l-190 -722h-89l-213 655h-2l-207 -655h-92zM349 927h80l91 -143h-44z" />
    <glyph glyph-name="wgrave" unicode="&#x1e81;" horiz-adv-x="833" 
d="M16 502h66l150 -423h2l152 423h71l148 -419h2l145 419h66l-187 -502h-57l-154 433h-2l-157 -433h-61zM261 707h80l91 -143h-44z" />
    <glyph glyph-name="Wacute" unicode="&#x1e82;" horiz-adv-x="1000" 
d="M10 722h69l168 -657h2l211 657h79l220 -657h2l167 657h63l-190 -722h-89l-213 655h-2l-207 -655h-92zM574 927h80l-127 -143h-44z" />
    <glyph glyph-name="wacute" unicode="&#x1e83;" horiz-adv-x="833" 
d="M16 502h66l150 -423h2l152 423h71l148 -419h2l145 419h66l-187 -502h-57l-154 433h-2l-157 -433h-61zM503 707h80l-127 -143h-44z" />
    <glyph glyph-name="Wdieresis" unicode="&#x1e84;" horiz-adv-x="1000" 
d="M10 722h69l168 -657h2l211 657h79l220 -657h2l167 657h63l-190 -722h-89l-213 655h-2l-207 -655h-92zM376 912h74v-88h-74v88zM550 912h74v-88h-74v88z" />
    <glyph glyph-name="wdieresis" unicode="&#x1e85;" horiz-adv-x="833" 
d="M16 502h66l150 -423h2l152 423h71l148 -419h2l145 419h66l-187 -502h-57l-154 433h-2l-157 -433h-61zM293 707h74v-88h-74v88zM467 707h74v-88h-74v88z" />
    <glyph glyph-name="uni1E9E" unicode="&#x1e9e;" horiz-adv-x="689" 
d="M553 717v-56q-72 -4 -135.5 -41t-63.5 -94q0 -29 17.5 -52.5t36.5 -35.5t67 -37q2 -1 3.5 -2t3.5 -2l4 -2q81 -42 122 -90.5t41 -121.5q0 -96 -61.5 -146.5t-152.5 -50.5q-95 0 -150 41t-56 128h70q0 -109 136 -109q64 0 104 34.5t40 99.5q0 61 -29.5 92t-105.5 70
q-84 43 -122 81t-38 103q0 57 42.5 95t107.5 53q-37 4 -85 4q-100 0 -148 -41.5t-48 -135.5v-501h-65v493q0 130 63 187t197 57q110 0 205 -20z" />
    <glyph glyph-name="Ygrave" unicode="&#x1ef2;" horiz-adv-x="611" 
d="M8 722h83l221 -349l221 349h70l-264 -408v-314h-65v312zM175 927h80l91 -143h-44z" />
    <glyph glyph-name="ygrave" unicode="&#x1ef3;" horiz-adv-x="500" 
d="M8 502h73l169 -420l168 420h65l-277 -694h-66l76 192zM128 707h80l91 -143h-44z" />
    <glyph glyph-name="uni2010" unicode="&#x2010;" horiz-adv-x="278" 
d="M13 297h252v-60h-252v60z" />
    <glyph glyph-name="endash" unicode="&#x2013;" horiz-adv-x="500" 
d="M0 297h500v-60h-500v60z" />
    <glyph glyph-name="emdash" unicode="&#x2014;" horiz-adv-x="1000" 
d="M0 297h1000v-60h-1000v60z" />
    <glyph glyph-name="quoteleft" unicode="&#x2018;" horiz-adv-x="278" 
d="M73 517l72 205h52l-43 -205h-81z" />
    <glyph glyph-name="quoteright" unicode="&#x2019;" horiz-adv-x="278" 
d="M124 722h81l-72 -205h-52z" />
    <glyph glyph-name="quotesinglbase" unicode="&#x201a;" horiz-adv-x="278" 
d="M124 81h81l-72 -205h-52z" />
    <glyph glyph-name="quotedblleft" unicode="&#x201c;" 
d="M119 517l72 205h52l-43 -205h-81zM303 517l72 205h52l-43 -205h-81z" />
    <glyph glyph-name="quotedblright" unicode="&#x201d;" 
d="M172 722h81l-72 -205h-52zM356 722h81l-72 -205h-52z" />
    <glyph glyph-name="quotedblbase" unicode="&#x201e;" 
d="M170 81h81l-72 -205h-52zM354 81h81l-72 -205h-52z" />
    <glyph glyph-name="dagger" unicode="&#x2020;" 
d="M248 542v180h60v-180h172v-55h-172v-487h-60v487h-172v55h172z" />
    <glyph glyph-name="daggerdbl" unicode="&#x2021;" 
d="M248 542v180h60v-180h172v-55h-172v-255h172v-55h-172v-177h-60v177h-172v55h172v255h-172v55h172z" />
    <glyph glyph-name="bullet" unicode="&#x2022;" horiz-adv-x="500" 
d="M249 541q75 0 128 -53t53 -127q0 -75 -53.5 -127.5t-127.5 -52.5t-126.5 53.5t-52.5 126.5q0 74 52.5 127t126.5 53z" />
    <glyph glyph-name="ellipsis" unicode="&#x2026;" horiz-adv-x="1000" 
d="M127 86h80v-86h-80v86zM460 86h80v-86h-80v86zM793 86h80v-86h-80v86z" />
    <glyph glyph-name="perthousand" unicode="&#x2030;" horiz-adv-x="1000" 
d="M319 545q0 -75 -38 -118.5t-106 -43.5q-69 0 -106.5 44t-37.5 118t37.5 118t106.5 44q68 0 106 -44.5t38 -117.5zM91 -15l418 722h53l-415 -722h-56zM175 428q42 0 65.5 33t23.5 84t-23.5 84t-66.5 33q-40 0 -64 -33t-24 -84t24 -84t65 -33zM622 147q0 -74 -37.5 -118
t-106.5 -44t-106.5 44t-37.5 118t37.5 118t106.5 44q70 0 107 -44.5t37 -117.5zM969 147q0 -74 -37 -118t-107 -44q-68 0 -106 43.5t-38 118.5t37.5 118.5t106.5 43.5t106.5 -44t37.5 -118zM478 30q41 0 65 33t24 84t-24 84t-65 33t-65 -33t-24 -84t24 -84t65 -33zM825 30
q42 0 65.5 33t23.5 84t-23.5 84t-65.5 33q-40 0 -64.5 -32t-24.5 -85q0 -51 24 -84t65 -33z" />
    <glyph glyph-name="guilsinglleft" unicode="&#x2039;" horiz-adv-x="278" 
d="M164 462h51l-93 -195l92 -195h-50l-106 195z" />
    <glyph glyph-name="guilsinglright" unicode="&#x203a;" horiz-adv-x="278" 
d="M156 267l-92 195h50l106 -195l-106 -195h-51z" />
    <glyph glyph-name="interrobang" unicode="&#x203d;" horiz-adv-x="500" 
d="M213 737q92 0 152 -46.5t60 -132.5q0 -78 -62 -142q-35 -35 -89 -87q-29 -26 -37 -49q-3 -9 -3 -41v-68h-60l-11 381h72l-8 -192q82 74 109 118q24 38 24 78q0 59 -42 90t-120 31q-44 0 -94 -15v61q47 14 109 14zM164 86h80v-86h-80v86z" />
    <glyph glyph-name="fraction" unicode="&#x2044;" horiz-adv-x="167" 
d="M-151 0l417 707h53l-415 -707h-55z" />
    <glyph glyph-name="zero.superior" unicode="&#x2070;" horiz-adv-x="360" 
d="M180 708q72 0 111 -55.5t39 -160.5q0 -106 -38.5 -161.5t-111.5 -55.5t-111.5 55.5t-38.5 161.5t38.5 161t111.5 55zM84 492q0 -169 96 -169t96 169q0 77 -25 123q-23 45 -72 45q-95 0 -95 -168z" />
    <glyph glyph-name="four.superior" unicode="&#x2074;" horiz-adv-x="360" 
d="M210 699h63v-274h67v-44h-67v-97h-51v97h-200v37zM221 643l-142 -218h143v218h-1z" />
    <glyph glyph-name="five.superior" unicode="&#x2075;" horiz-adv-x="360" 
d="M55 699h253v-48h-204l-6 -132l1 -1q39 46 91 46q65 0 102 -40t37 -105q0 -62 -39 -104q-40 -40 -106 -40q-138 0 -147 111h54q5 -29 29 -46t59 -17q46 0 71 27t25 74q0 42 -24.5 67t-68.5 25q-60 0 -84 -57h-52z" />
    <glyph glyph-name="six.superior" unicode="&#x2076;" horiz-adv-x="360" 
d="M190 708q64 0 99.5 -28.5t36.5 -81.5h-54q-3 29 -26 46q-23 16 -54 16q-110 0 -110 -161q1 -1 1 0q33 60 108 60q66 0 102 -38q38 -40 38 -102q0 -64 -40 -104q-39 -40 -103 -40q-78 0 -119 51.5t-41 145.5q0 126 40 181t122 55zM89 417q0 -44 25 -69t68 -25
q44 0 69.5 25t25.5 69q0 41 -24 69t-64 28q-47 0 -73.5 -26t-26.5 -71z" />
    <glyph glyph-name="seven.superior" unicode="&#x2077;" horiz-adv-x="360" 
d="M31 699h277v-47l-173 -368h-58l178 367h-224v48z" />
    <glyph glyph-name="eight.superior" unicode="&#x2078;" horiz-adv-x="360" 
d="M179 708q61 0 102 -28t41 -83q0 -38 -21.5 -63t-58.5 -33v-1q87 -26 87 -103q0 -58 -44 -90t-106 -32q-65 0 -107 31t-42 91q0 37 22.5 64.5t63.5 37.5v2q-36 3 -58 31t-22 65q0 54 42 82.5t101 28.5zM87 594q0 -29 26 -50q25 -19 66 -19q42 0 67 18.5t25 50.5
q0 31 -25.5 50t-66.5 19q-38 0 -64.5 -17.5t-27.5 -51.5zM84 400q0 -35 26.5 -56t68.5 -21q40 0 68 20t28 57q0 35 -27 56t-70 21q-39 0 -66.5 -20.5t-27.5 -56.5z" />
    <glyph glyph-name="nine.superior" unicode="&#x2079;" horiz-adv-x="360" 
d="M171 708q160 0 160 -199q0 -128 -41.5 -181t-120.5 -53q-66 0 -98 29t-37 88h54q3 -34 24 -51.5t55 -17.5q110 0 110 161h-1q-32 -60 -109 -60q-65 0 -102 38t-37 102q0 65 38.5 104.5t104.5 39.5zM82 566q0 -42 25 -69.5t62 -27.5q48 0 74.5 26t26.5 71q0 43 -25 68.5
t-69 25.5q-43 0 -68.5 -25.5t-25.5 -68.5z" />
    <glyph glyph-name="plus.superior" unicode="&#x207a;" horiz-adv-x="360" 
d="M156 459v126h48v-126h132v-48h-132v-127h-48v127h-132v48h132z" />
    <glyph glyph-name="minus.superior" unicode="&#x207b;" horiz-adv-x="360" 
d="M24 459h312v-48h-312v48z" />
    <glyph glyph-name="equal.superior" unicode="&#x207c;" horiz-adv-x="360" 
d="M24 517h312v-48h-312v48zM24 400h312v-48h-312v48z" />
    <glyph glyph-name="parenleft.superior" unicode="&#x207d;" horiz-adv-x="230" 
d="M121 717h42q-52 -101 -52 -245q0 -154 52 -246h-42q-64 128 -64 246q0 120 64 245z" />
    <glyph glyph-name="parenright.superior" unicode="&#x207e;" horiz-adv-x="230" 
d="M57 717h42q65 -123 65 -245q0 -115 -64 -246h-43q53 90 53 247q0 77 -11.5 132t-41.5 112z" />
    <glyph glyph-name="n.superior" unicode="&#x207f;" horiz-adv-x="360" 
d="M199 594q50 0 76.5 -32t26.5 -91v-187h-48v194q0 34 -19 52.5t-51 18.5q-34 0 -55 -26.5t-21 -68.5v-170h-48v252q0 12 -3 49h49l2 -40h1q33 49 90 49z" />
    <glyph glyph-name="zero.inferior" unicode="&#x2080;" horiz-adv-x="360" 
d="M180 424q72 0 111 -55.5t39 -160.5q0 -106 -38.5 -161.5t-111.5 -55.5t-111.5 55.5t-38.5 161.5t38.5 161t111.5 55zM84 208q0 -169 96 -169t96 169q0 77 -25 123q-23 45 -72 45q-95 0 -95 -168z" />
    <glyph glyph-name="one.inferior" unicode="&#x2081;" horiz-adv-x="360" 
d="M187 409h49v-409h-51v356q-41 -36 -102 -62v50q56 20 104 65z" />
    <glyph glyph-name="two.inferior" unicode="&#x2082;" horiz-adv-x="360" 
d="M176 424q58 0 96 -31t38 -82q0 -46 -38 -99t-97.5 -108t-60.5 -56h202v-48h-282v41q222 185 222 267q0 28 -22.5 48t-58.5 20q-38 0 -63.5 -20.5t-25.5 -50.5h-48q0 54 39 86.5t99 32.5z" />
    <glyph glyph-name="three.inferior" unicode="&#x2083;" horiz-adv-x="360" 
d="M168 424q69 0 110 -30t41 -82q0 -34 -24 -59t-68 -35v-2q45 -9 72 -39t27 -70q0 -53 -45 -85.5t-109 -32.5q-66 0 -107 32t-41 85h54q1 -31 28 -50t65 -19q46 0 73.5 20t27.5 55q0 37 -28 60t-72 23q-1 0 -23 -2v48q9 -1 19 -1q46 0 71.5 20t25.5 54q0 27 -25.5 44.5
t-65.5 17.5q-80 0 -90 -62h-54q0 48 39.5 79t98.5 31z" />
    <glyph glyph-name="four.inferior" unicode="&#x2084;" horiz-adv-x="360" 
d="M204 415h63v-274h67v-44h-67v-97h-51v97h-200v37zM215 359l-142 -218h143v218h-1z" />
    <glyph glyph-name="five.inferior" unicode="&#x2085;" horiz-adv-x="360" 
d="M55 415h253v-48h-204l-6 -132l1 -1q39 46 91 46q65 0 102 -40t37 -105q0 -62 -39 -104q-40 -40 -106 -40q-138 0 -147 111h54q5 -29 29 -46t59 -17q46 0 71 27t25 74q0 42 -24.5 67t-68.5 25q-60 0 -84 -57h-52z" />
    <glyph glyph-name="six.inferior" unicode="&#x2086;" horiz-adv-x="360" 
d="M190 424q64 0 99.5 -28.5t36.5 -81.5h-54q-3 29 -26 46q-23 16 -54 16q-110 0 -110 -161q1 -1 1 0q33 60 108 60q66 0 102 -38q38 -40 38 -102q0 -64 -40 -104q-39 -40 -103 -40q-78 0 -119 51.5t-41 145.5q0 126 40 181t122 55zM89 133q0 -44 25 -69t68 -25
q44 0 69.5 25t25.5 69q0 41 -24 69t-64 28q-47 0 -73.5 -26t-26.5 -71z" />
    <glyph glyph-name="seven.inferior" unicode="&#x2087;" horiz-adv-x="360" 
d="M31 415h277v-47l-173 -368h-58l178 367h-224v48z" />
    <glyph glyph-name="eight.inferior" unicode="&#x2088;" horiz-adv-x="360" 
d="M179 424q61 0 102 -28t41 -83q0 -38 -21.5 -63t-58.5 -33v-1q87 -26 87 -103q0 -58 -44 -90t-106 -32q-65 0 -107 31t-42 91q0 37 22.5 64.5t63.5 37.5v2q-36 3 -58 31t-22 65q0 54 42 82.5t101 28.5zM87 310q0 -29 26 -50q25 -19 66 -19q42 0 67 18.5t25 50.5
q0 31 -25.5 50t-66.5 19q-38 0 -64.5 -17.5t-27.5 -51.5zM84 116q0 -35 26.5 -56t68.5 -21q40 0 68 20t28 57q0 35 -27 56t-70 21q-39 0 -66.5 -20.5t-27.5 -56.5z" />
    <glyph glyph-name="nine.inferior" unicode="&#x2089;" horiz-adv-x="360" 
d="M171 424q160 0 160 -199q0 -128 -41.5 -181t-120.5 -53q-66 0 -98 29t-37 88h54q3 -34 24 -51.5t55 -17.5q110 0 110 161h-1q-32 -60 -109 -60q-65 0 -102 38t-37 102q0 65 38.5 104.5t104.5 39.5zM82 282q0 -42 25 -69.5t62 -27.5q48 0 74.5 26t26.5 71q0 43 -25 68.5
t-69 25.5q-43 0 -68.5 -25.5t-25.5 -68.5z" />
    <glyph glyph-name="plus.inferior" unicode="&#x208a;" horiz-adv-x="360" 
d="M156 175v126h48v-126h132v-48h-132v-127h-48v127h-132v48h132z" />
    <glyph glyph-name="minus.inferior" unicode="&#x208b;" horiz-adv-x="360" 
d="M24 175h312v-48h-312v48z" />
    <glyph glyph-name="equal.inferior" unicode="&#x208c;" horiz-adv-x="360" 
d="M24 233h312v-48h-312v48zM24 116h312v-48h-312v48z" />
    <glyph glyph-name="parenleft.inferior" unicode="&#x208d;" horiz-adv-x="230" 
d="M121 433h42q-52 -101 -52 -245q0 -154 52 -246h-42q-64 128 -64 246q0 120 64 245z" />
    <glyph glyph-name="parenright.inferior" unicode="&#x208e;" horiz-adv-x="230" 
d="M57 433h42q65 -123 65 -245q0 -115 -64 -246h-43q53 90 53 247q0 77 -11.5 132t-41.5 112z" />
    <glyph glyph-name="Euro" unicode="&#x20ac;" 
d="M20 318h59q-1 14 -1 30t1 30h-71l15 60h60q16 123 79.5 196t180.5 73q89 0 143.5 -46t61.5 -138h-70q-7 59 -44 91.5t-91 32.5q-158 0 -189 -209h289l-14 -60h-281q-1 -12 -1 -30q0 -17 1 -30h266l-14 -60h-247q29 -213 190 -213q55 0 94 32t49 90h70q-13 -85 -71 -133.5
t-142 -48.5q-117 0 -180.5 74t-79.5 199h-78z" />
    <glyph glyph-name="uni20B9" unicode="&#x20b9;" 
d="M539 632h-161q33 -21 43 -60h118v-60h-108q0 -97 -64 -138t-180 -41h-32l295 -333h-89l-290 329v61h97q48 0 79 4t59 16t41.5 37.5t13.5 64.5h-290v60h276q-27 60 -135 60h-141v60h468v-60z" />
    <glyph glyph-name="uni20BA" unicode="&#x20ba;" 
d="M399 446l-209 -101v-284h19q74 0 129.5 43t81.5 109t26 144v4h70q0 -88 -26.5 -158.5t-70.5 -114t-98.5 -66t-113.5 -22.5h-82v314l-93 -44v63l93 44v69l-93 -44v63l93 44v183h65v-152l209 101v-63l-209 -101v-69l209 101v-63z" />
    <glyph glyph-name="uni20BC" unicode="&#x20bc;" horiz-adv-x="737" 
d="M401 506v-436h-65v436q-60 -5 -107.5 -52t-73.5 -116.5t-39 -143t-13 -142.5v-52h-65v64q0 87 16.5 169.5t50 157.5t93.5 122.5t138 52.5v126h65v-126q78 -5 138 -52.5t93.5 -122.5t50 -157.5t16.5 -169.5v-64h-65v52q0 68 -13 141t-39.5 143t-73.5 117.5t-107 52.5z" />
    <glyph glyph-name="uni20BD" unicode="&#x20bd;" 
d="M131 0v187h-96v60h96v64h-96v60h96v321h179q241 0 241 -188q0 -98 -66 -145.5t-175 -47.5h-114v-64h178v-60h-178v-187h-65zM196 632v-261h112q83 0 128 30.5t45 102.5q0 71 -45 99.5t-128 28.5h-112z" />
    <glyph glyph-name="afii61248" unicode="&#x2105;" horiz-adv-x="1000" 
d="M283 0l390 707h58l-390 -707h-58zM285 705q64 0 104.5 -32t41.5 -87h-56q-4 37 -28 56.5t-64 19.5q-49 0 -79.5 -39.5t-30.5 -104.5t30.5 -105.5t80.5 -40.5q82 0 91 76h56q-1 -54 -41 -86.5t-105 -32.5q-77 0 -122 52t-45 136t45 136t122 52zM723 363q71 0 115 -54.5
t44 -134.5t-44 -134.5t-115 -54.5q-70 0 -114.5 54t-44.5 135q0 80 44 134.5t115 54.5zM619 174q0 -64 27.5 -104t76.5 -40t76.5 40.5t27.5 103.5t-27 103.5t-77 40.5q-49 0 -76.5 -40t-27.5 -104z" />
    <glyph glyph-name="afii61289" unicode="&#x2113;" horiz-adv-x="500" 
d="M397 593q0 -142 -171 -318v-153q0 -39 20 -61.5t55 -22.5q45 0 89 39l25 -36q-58 -55 -130 -55q-58 0 -90 33.5t-32 90.5v118l-59 -63l-27 38l86 84v263q0 76 33.5 123.5t90.5 47.5q50 0 80 -35.5t30 -92.5zM226 558v-223q114 132 114 253q0 39 -14.5 62t-38.5 23
q-27 0 -44 -31.5t-17 -83.5z" />
    <glyph glyph-name="published" unicode="&#x2117;" horiz-adv-x="800" 
d="M778 363q0 -157 -111 -268.5t-267 -111.5q-153 0 -265.5 111t-112.5 269q0 155 111.5 266.5t266.5 111.5q157 0 267.5 -111t110.5 -267zM400 23q141 0 239 99.5t98 240.5q0 138 -98.5 237.5t-239.5 99.5q-139 0 -238 -100t-99 -237q0 -143 99.5 -241.5t238.5 -98.5z
M290 581h113q172 0 172 -121q0 -124 -172 -124h-74v-187h-39v432zM329 373h98q50 0 78 22t28 65q0 42 -27.5 63.5t-78.5 21.5h-98v-172z" />
    <glyph glyph-name="trademark" unicode="&#x2122;" horiz-adv-x="940" 
d="M29 722h320v-40h-132v-381h-55v381h-133v40zM424 722h99l120 -311h2l118 311h99v-421h-55v377h-2l-145 -377h-34l-145 377h-2v-377h-55v421z" />
    <glyph glyph-name="Omega" unicode="&#x2126;" horiz-adv-x="744" 
d="M367 721q135 0 226.5 -88.5t91.5 -215.5q0 -100 -52.5 -176.5t-144.5 -100.5v-82h197v-58h-251v181q86 14 135 77t49 157q0 105 -71.5 175t-180.5 70q-108 0 -180 -70.5t-72 -174.5q0 -92 48 -155.5t136 -78.5v-181h-251v58h197v82q-91 26 -144 101.5t-53 174.5
q0 132 94.5 218.5t225.5 86.5z" />
    <glyph glyph-name="estimated" unicode="&#x212e;" horiz-adv-x="990" 
d="M912 350h-676q-6 0 -6 -6v-192q0 -23 8 -31q87 -109 254 -109q84 0 148 31t125 88h73q-64 -77 -141 -111.5t-202 -34.5q-192 0 -305 106.5t-113 260.5q0 74 29 143t81 123t132 86.5t174 32.5q93 0 166.5 -23.5t120 -61t77 -89t43 -104t12.5 -109.5zM758 377v198
q0 14 -11 27q-47 59 -118 84t-139 25q-147 0 -250 -107q-10 -9 -10 -28v-199q0 -5 6 -5h517q5 0 5 5z" />
    <glyph glyph-name="onethird" unicode="&#x2153;" horiz-adv-x="834" 
d="M136 693h49v-409h-51v356q-41 -36 -102 -62v50q56 20 104 65zM148 0l417 707h53l-415 -707h-55zM644 424q69 0 110 -30t41 -82q0 -34 -24 -59t-68 -35v-2q45 -9 72 -39t27 -70q0 -53 -45 -85.5t-109 -32.5q-66 0 -107 32t-41 85h54q1 -31 28 -50t65 -19q46 0 73.5 20
t27.5 55q0 37 -28 60t-72 23q-1 0 -23 -2v48q9 -1 19 -1q46 0 71.5 20t25.5 54q0 27 -25.5 44.5t-65.5 17.5q-80 0 -90 -62h-54q0 48 39.5 79t98.5 31z" />
    <glyph glyph-name="twothirds" unicode="&#x2154;" horiz-adv-x="834" 
d="M169 708q58 0 96 -31t38 -82q0 -46 -38 -99t-97.5 -108t-60.5 -56h202v-48h-282v41q222 185 222 267q0 28 -22.5 48t-58.5 20q-38 0 -63.5 -20.5t-25.5 -50.5h-48q0 54 39 86.5t99 32.5zM194 0l417 707h53l-415 -707h-55zM648 424q69 0 110 -30t41 -82q0 -34 -24 -59
t-68 -35v-2q45 -9 72 -39t27 -70q0 -53 -45 -85.5t-109 -32.5q-66 0 -107 32t-41 85h54q1 -31 28 -50t65 -19q46 0 73.5 20t27.5 55q0 37 -28 60t-72 23q-1 0 -23 -2v48q9 -1 19 -1q46 0 71.5 20t25.5 54q0 27 -25.5 44.5t-65.5 17.5q-80 0 -90 -62h-54q0 48 39.5 79
t98.5 31z" />
    <glyph glyph-name="oneeighth" unicode="&#x215b;" horiz-adv-x="834" 
d="M138 693h49v-409h-51v356q-41 -36 -102 -62v50q56 20 104 65zM139 0l417 707h53l-415 -707h-55zM649 424q61 0 102 -28t41 -83q0 -38 -21.5 -63t-58.5 -33v-1q87 -26 87 -103q0 -58 -44 -90t-106 -32q-65 0 -107 31t-42 91q0 37 22.5 64.5t63.5 37.5v2q-36 3 -58 31
t-22 65q0 54 42 82.5t101 28.5zM557 310q0 -29 26 -50q25 -19 66 -19q42 0 67 18.5t25 50.5q0 31 -25.5 50t-66.5 19q-38 0 -64.5 -17.5t-27.5 -51.5zM554 116q0 -35 26.5 -56t68.5 -21q40 0 68 20t28 57q0 35 -27 56t-70 21q-39 0 -66.5 -20.5t-27.5 -56.5z" />
    <glyph glyph-name="threeeighths" unicode="&#x215c;" horiz-adv-x="834" 
d="M186 0l417 707h53l-415 -707h-55zM653 424q61 0 102 -28t41 -83q0 -38 -21.5 -63t-58.5 -33v-1q87 -26 87 -103q0 -58 -44 -90t-106 -32q-65 0 -107 31t-42 91q0 37 22.5 64.5t63.5 37.5v2q-36 3 -58 31t-22 65q0 54 42 82.5t101 28.5zM561 310q0 -29 26 -50
q25 -19 66 -19q42 0 67 18.5t25 50.5q0 31 -25.5 50t-66.5 19q-38 0 -64.5 -17.5t-27.5 -51.5zM558 116q0 -35 26.5 -56t68.5 -21q40 0 68 20t28 57q0 35 -27 56t-70 21q-39 0 -66.5 -20.5t-27.5 -56.5zM175 708q69 0 110 -30t41 -82q0 -34 -24 -59t-68 -35v-2q45 -9 72 -39
t27 -70q0 -53 -45 -85.5t-109 -32.5q-66 0 -107 32t-41 85h54q1 -31 28 -50t65 -19q46 0 73.5 20t27.5 55q0 37 -28 60t-72 23q-1 0 -23 -2v48q9 -1 19 -1q46 0 71.5 20t25.5 54q0 27 -25.5 44.5t-65.5 17.5q-80 0 -90 -62h-54q0 48 39.5 79t98.5 31z" />
    <glyph glyph-name="fiveeighths" unicode="&#x215d;" horiz-adv-x="834" 
d="M55 699h253v-48h-204l-6 -132l1 -1q39 46 91 46q65 0 102 -40t37 -105q0 -62 -39 -104q-40 -40 -106 -40q-138 0 -147 111h54q5 -29 29 -46t59 -17q46 0 71 27t25 74q0 42 -24.5 67t-68.5 25q-60 0 -84 -57h-52zM189 0l417 707h53l-415 -707h-55zM666 424q61 0 102 -28
t41 -83q0 -38 -21.5 -63t-58.5 -33v-1q87 -26 87 -103q0 -58 -44 -90t-106 -32q-65 0 -107 31t-42 91q0 37 22.5 64.5t63.5 37.5v2q-36 3 -58 31t-22 65q0 54 42 82.5t101 28.5zM574 310q0 -29 26 -50q25 -19 66 -19q42 0 67 18.5t25 50.5q0 31 -25.5 50t-66.5 19
q-38 0 -64.5 -17.5t-27.5 -51.5zM571 116q0 -35 26.5 -56t68.5 -21q40 0 68 20t28 57q0 35 -27 56t-70 21q-39 0 -66.5 -20.5t-27.5 -56.5z" />
    <glyph glyph-name="seveneighths" unicode="&#x215e;" horiz-adv-x="834" 
d="M56 699h277v-47l-173 -368h-58l178 367h-224v48zM144 0l417 707h53l-415 -707h-55zM641 424q61 0 102 -28t41 -83q0 -38 -21.5 -63t-58.5 -33v-1q87 -26 87 -103q0 -58 -44 -90t-106 -32q-65 0 -107 31t-42 91q0 37 22.5 64.5t63.5 37.5v2q-36 3 -58 31t-22 65
q0 54 42 82.5t101 28.5zM549 310q0 -29 26 -50q25 -19 66 -19q42 0 67 18.5t25 50.5q0 31 -25.5 50t-66.5 19q-38 0 -64.5 -17.5t-27.5 -51.5zM546 116q0 -35 26.5 -56t68.5 -21q40 0 68 20t28 57q0 35 -27 56t-70 21q-39 0 -66.5 -20.5t-27.5 -56.5z" />
    <glyph glyph-name="partialdiff" unicode="&#x2202;" horiz-adv-x="496" 
d="M455 363q0 -177 -56.5 -276t-168.5 -99q-86 0 -142.5 64.5t-56.5 159.5q0 93 53.5 153t140.5 60q98 0 166 -84q1 26 1 50q0 119 -46.5 197t-132.5 78q-52 0 -112 -46l-36 43q21 21 60.5 39.5t84.5 18.5q118 0 181.5 -98.5t63.5 -259.5zM231 41q66 0 106.5 61.5
t48.5 175.5q-68 91 -156 91q-61 0 -98.5 -45t-37.5 -114t38 -119t99 -50z" />
    <glyph glyph-name="Delta" unicode="&#x2206;" horiz-adv-x="670" 
d="M296 712h74l287 -712h-642zM332 645l-226 -583h455z" />
    <glyph glyph-name="product" unicode="&#x220f;" horiz-adv-x="711" 
d="M71 786h570v-1000h-66v938h-438v-938h-66v1000z" />
    <glyph glyph-name="summation" unicode="&#x2211;" horiz-adv-x="604" 
d="M39 786h527v-62h-442l309 -435l-328 -442h473v-61h-553v55l329 448l-315 441v56z" />
    <glyph glyph-name="minus" unicode="&#x2212;" horiz-adv-x="660" 
d="M80 281h500v-60h-500v60z" />
    <glyph glyph-name="uni2215" unicode="&#x2215;" horiz-adv-x="167" 
d="M-151 0l417 707h53l-415 -707h-55z" />
    <glyph glyph-name="uni2219" unicode="&#x2219;" horiz-adv-x="278" 
d="M99 294h80v-86h-80v86z" />
    <glyph glyph-name="radical" unicode="&#x221a;" horiz-adv-x="493" 
d="M439 786h63l-210 -1000h-66l-164 340l-46 -22l-24 50l100 48l158 -330z" />
    <glyph glyph-name="infinity" unicode="&#x221e;" horiz-adv-x="741" 
d="M700 252q0 -65 -39.5 -106.5t-100.5 -41.5q-85 0 -189 107l-66 -56q-61 -51 -124 -51q-61 0 -100.5 41t-39.5 104q0 64 38.5 106t99.5 42q40 0 82.5 -23t109.5 -89l33 32q83 81 154 81q63 0 102.5 -41t39.5 -105zM450 284l-41 -36q94 -86 154 -86q36 0 58 24t22 63
q0 42 -22.5 67t-60.5 25q-44 0 -110 -57zM182 162q58 0 151 87q-100 91 -155 91q-36 0 -58 -26t-22 -64q0 -40 23 -64t61 -24z" />
    <glyph glyph-name="integral" unicode="&#x222b;" horiz-adv-x="543" 
d="M335 786q31 0 51 -13.5t20 -36.5q0 -34 -37 -34q-22 0 -34 22q-10 18 -18 18q-36 0 -36 -125q0 -7 1 -25t1 -29v-539q0 -122 -28.5 -179.5t-92.5 -57.5q-27 0 -44 12.5t-17 34.5q0 14 9.5 23t23.5 9q20 0 35 -25q8 -13 15 -13q29 0 32 130l1 44l-1 583q0 108 30.5 154.5
t88.5 46.5z" />
    <glyph glyph-name="approxequal" unicode="&#x2248;" horiz-adv-x="660" 
d="M549 232h44q-8 -65 -40.5 -101.5t-83.5 -36.5q-48 0 -134 33q-103 40 -143 40q-30 0 -51 -21t-28 -59h-45q23 140 123 140q50 0 187 -52q57 -21 93 -21q61 0 78 78zM550 402h43q-8 -65 -40 -101t-84 -36q-42 0 -132 33q-108 40 -145 40q-30 0 -51 -21t-28 -59h-45
q20 139 125 139q12 0 27 -2.5t26 -4.5t32 -9t29 -10t36 -13t35 -13q57 -21 93 -21q63 0 79 78z" />
    <glyph glyph-name="notequal" unicode="&#x2260;" horiz-adv-x="660" 
d="M438 517l52 -28l-63 -119h154v-60h-186l-69 -130h255v-60h-287l-76 -144l-52 27l62 117h-149v60h181l68 130h-249v60h282z" />
    <glyph glyph-name="lessequal" unicode="&#x2264;" horiz-adv-x="660" 
d="M581 550v-65l-419 -157l419 -155v-65l-502 188v65zM79 65h502v-59h-502v59z" />
    <glyph glyph-name="greaterequal" unicode="&#x2265;" horiz-adv-x="660" 
d="M79 485v65l502 -189v-65l-502 -188v65l421 155zM79 65h502v-59h-502v59z" />
    <glyph glyph-name="lozenge" unicode="&#x25ca;" horiz-adv-x="593" 
d="M264 747h63l171 -391l-171 -391h-63l-169 390zM296 681l-136 -325l136 -325l137 325z" />
    <glyph glyph-name="f_i" unicode="&#xf001;" 
d="M243 734q20 0 58 -11v-48q-22 4 -37 4q-61 0 -75 -35q-6 -14 -6 -74v-68h114v-55h-114v-447h-60v447h-101v55h101v108q0 63 28.5 93.5t91.5 30.5zM401 722h70v-75h-70v75zM406 0v502h60v-502h-60z" />
    <glyph glyph-name="f_l" unicode="&#xf002;" 
d="M245 734q20 0 58 -11v-48q-22 4 -37 4q-61 0 -75 -35q-6 -14 -6 -74v-68h114v-55h-114v-447h-60v447h-101v55h101v108q0 63 28.5 93.5t91.5 30.5zM410 0v722h60v-722h-60z" />
    <glyph glyph-name="uniF8FF" unicode="&#xf8ff;" horiz-adv-x="512" 
d="M0 718h512v-718h-512v718zM50 50h412v617h-412v-617zM383 478q0 -27 -9.5 -50t-19.5 -35t-31.5 -32t-30.5 -30q-20 -23 -20 -66v-32h-49v39q0 35 17 65t37.5 47.5t37.5 41.5t17 48q0 36 -22.5 60.5t-53.5 24.5q-71 0 -82 -95l-50 8q6 69 42.5 103t92.5 34q55 0 89.5 -36
t34.5 -95zM217 117v67h61v-67h-61z" />
    <glyph glyph-name="grave.cap" horiz-adv-x="278" 
d="M20 927h80l91 -143h-44z" />
    <glyph glyph-name="acute.cap" horiz-adv-x="278" 
d="M178 927h80l-127 -143h-44z" />
    <glyph glyph-name="circumflex.cap" horiz-adv-x="278" 
d="M103 927h73l99 -145h-47l-89 106l-90 -106h-46z" />
    <glyph glyph-name="caron.cap" horiz-adv-x="278" 
d="M102 782l-99 145h47l89 -106l90 106h46l-100 -145h-73z" />
    <glyph glyph-name="caron.alt" horiz-adv-x="278" 
d="M128 722h66l-64 -146h-40z" />
    <glyph glyph-name="tilde.cap" horiz-adv-x="278" 
d="M239 915h38q-22 -85 -90 -85q-13 0 -46 11q-30 10 -54 10q-40 0 -47 -29h-38q9 39 32.5 60t57.5 21q20 0 61 -13q26 -8 36 -8q38 0 50 33z" />
    <glyph glyph-name="dieresis.cap" horiz-adv-x="278" 
d="M15 912h74v-88h-74v88zM189 912h74v-88h-74v88z" />
    <glyph glyph-name="macron.cap" horiz-adv-x="278" 
d="M17 893h245v-50h-245v50z" />
    <glyph glyph-name="breve.cap" horiz-adv-x="278" 
d="M17 937h23q6 -29 31.5 -45.5t64.5 -16.5q40 0 68.5 16.5t35.5 45.5h21q-6 -108 -124 -108q-54 0 -86.5 28.5t-33.5 79.5z" />
    <glyph glyph-name="ring.cap" horiz-adv-x="278" 
d="M138 962q39 0 66 -27.5t27 -65.5q0 -37 -27 -64.5t-66 -27.5q-38 0 -65 27t-27 65t27 65.5t65 27.5zM82 869q0 -22 16 -39t40 -17t40 17t16 39t-16.5 39t-39.5 17t-39.5 -16t-16.5 -40z" />
    <glyph glyph-name="hungarumlaut.cap" 
d="M220 927h81l-129 -141h-47zM351 927h81l-129 -141h-47z" />
    <glyph glyph-name="dotaccent.cap" horiz-adv-x="278" 
d="M102 927h74v-88h-74v88z" />
    <glyph glyph-name="commaaccent" horiz-adv-x="278" 
d="M109 -74h67l-59 -145h-43z" />
    <glyph glyph-name="commaaccent.alt" horiz-adv-x="278" 
d="M84 564l59 145h43l-35 -145h-67z" />
    </font>
</defs>
</svg>
